<?xml version="1.0" standalone="no"?>
<!DOCTYPE svg PUBLIC "-//W3C//DTD SVG 1.1//EN" "http://www.w3.org/Graphics/SVG/1.1/DTD/svg11.dtd" >
<svg>
<metadata>
Created by FontForge 20090914 at Thu Apr 29 09:00:44 2021
 By www-data
Copyright 2008 Dalton Maag Ltd. This typeface is for exclusive use by Toyota Motor Corporation only. The typeface may only be used in projects relating to Toyota Motor Corporation. All rights reserved.
</metadata>
<defs>
<font id="ToyotaDisplay-Bold" horiz-adv-x="1024" >
  <font-face 
    font-family="Toyota Display"
    font-weight="700"
    font-stretch="normal"
    units-per-em="2048"
    panose-1="2 11 8 3 4 2 2 2 2 3"
    ascent="1536"
    descent="-512"
    x-height="1042"
    cap-height="1477"
    bbox="-246 -526 2216 2140"
    underline-thickness="102"
    underline-position="-102"
    unicode-range="U+000D-U+FB04"
  />
<missing-glyph horiz-adv-x="748" 
d="M68 0v1365h544v-1365h-544zM136 68h408v1229h-408v-1229z" />
    <glyph glyph-name="uniFB01" unicode="fi" horiz-adv-x="1234" 
d="M49 797l-0.00195312 241.001h131v105c0 50.667 7.83301 98.167 23.5 142.5s40.667 82.5 75 114.5s77.333 57.167 129 75.5s114.5 27.5 188.5 27.5c86 0 163.5 -8.83301 232.5 -26.5s130.833 -37.5 185.5 -59.5l-88 -223c-53.333 23.333 -106.666 41.166 -159.999 53.499
s-97.666 18.5 -132.999 18.5c-57.333 0 -97 -12 -119 -36s-33 -57.333 -33 -100v-92h629v-1038h-301v797h-328v-797h-301v797h-131z" />
    <glyph glyph-name="uniFB02" unicode="fl" horiz-adv-x="1249" 
d="M49 797l-0.00292969 241.003h131v107c0 50.667 6.83301 98.167 20.5 142.5s36.5 82.166 68.5 113.499s75 56.166 129 74.499s121.333 27.5 202 27.5c95.333 0 189.833 -8.5 283.5 -25.5s173.834 -37.167 240.501 -60.5v-1417h-301v1241
c-31.333 9.33301 -65.666 16.166 -102.999 20.499s-69.666 6.5 -96.999 6.5c-52 0 -88.667 -12 -110 -36s-32 -60.667 -32 -110v-84h226v-241h-226v-797h-301v797h-131z" />
    <glyph glyph-name="uniFB03" unicode="ffi" horiz-adv-x="1861" 
d="M49 797l-0.000976562 241.002h131v107c0 50.667 7.16699 98.167 21.5 142.5s37.5 82.166 69.5 113.499s73.333 56.166 124 74.499s112.334 27.5 185.001 27.5c38 0 76.167 -2.66699 114.5 -8s75.833 -12.666 112.5 -21.999l-49 -228c-31.333 8 -58 13.833 -80 17.5
s-44 5.5 -66 5.5c-48 0 -81.833 -12 -101.5 -36s-29.5 -60.667 -29.5 -110v-84h326v105c0 50.667 7.83301 98.167 23.5 142.5s40.5 82.5 74.5 114.5s77 57.167 129 75.5s115 27.5 189 27.5c86 0 163.5 -8.83301 232.5 -26.5s130.5 -37.5 184.5 -59.5l-88 -223
c-53.333 23.333 -106.5 41.166 -159.5 53.499s-97.167 18.5 -132.5 18.5c-57.333 0 -97 -12 -119 -36s-33 -57.333 -33 -100v-92h629v-1038h-301v797h-328v-797h-301v797h-326v-797h-301v797h-131z" />
    <glyph glyph-name="uniFB04" unicode="ffl" horiz-adv-x="1884" 
d="M49 797l-0.00195312 241.004h131v107c0 50.667 7.16699 98.167 21.5 142.5s37.5 82.166 69.5 113.499s73.333 56.166 124 74.499s112.334 27.5 185.001 27.5c38 0 76.167 -2.66699 114.5 -8s75.833 -12.666 112.5 -21.999l-49 -228c-31.333 8 -58 13.833 -80 17.5
s-44 5.5 -66 5.5c-48 0 -81.833 -12 -101.5 -36s-29.5 -60.667 -29.5 -110v-84h334v107c0 50.667 6.83301 98.167 20.5 142.5s36.5 82.166 68.5 113.499s75 56.166 129 74.499s121.333 27.5 202 27.5c95.333 0 189.833 -8.5 283.5 -25.5s173.834 -37.167 240.501 -60.5
v-1417h-301v1241c-31.333 9.33301 -65.833 16.166 -103.5 20.499s-70.167 6.5 -97.5 6.5c-52 0 -88.5 -12 -109.5 -36s-31.5 -60.667 -31.5 -110v-84h225v-241h-225v-797h-301v797h-334v-797h-301v797h-131z" />
    <glyph glyph-name=".notdef" horiz-adv-x="748" 
d="M68 0v1365h544v-1365h-544zM136 68h408v1229h-408v-1229z" />
    <glyph glyph-name="glyph1" horiz-adv-x="0" 
 />
    <glyph glyph-name="glyph1" horiz-adv-x="0" 
 />
    <glyph glyph-name="uni000D" unicode="&#xd;" horiz-adv-x="972" 
 />
    <glyph glyph-name="space" unicode=" " horiz-adv-x="409" 
 />
    <glyph glyph-name="exclam" unicode="!" horiz-adv-x="587" 
d="M123 143c0 50.667 14.001 92.334 42.001 125.001s71.333 49 130 49c57.333 0 100 -16.333 128 -49s42 -74.334 42 -125.001c0 -52 -14 -94.333 -42 -127s-70.667 -49 -128 -49c-58.667 0 -102.334 16.333 -131.001 49c-27.333 34 -41 76.333 -41 127zM137.001 1477h328
l-45 -1033h-252z" />
    <glyph glyph-name="quotedbl" unicode="&#x22;" horiz-adv-x="800" 
d="M90 844v633h256v-633h-256zM457 844v633h256v-633h-256z" />
    <glyph glyph-name="numbersign" unicode="#" horiz-adv-x="1458" 
d="M70 354v244h247l52 246h-197v243h248l53 271h275l-52 -271h224l53 271h274l-53 -271h209v-243h-258l-51 -246h206v-244h-256l-57 -284h-280l61 284h-221l-64 -284h-276l59 284h-196zM598 598h219l53 246h-223z" />
    <glyph glyph-name="dollar" unicode="$" horiz-adv-x="1300" 
d="M61 98l84.0029 260.005c79.333 -32.667 155.5 -57.5 228.5 -74.5s146.5 -25.5 220.5 -25.5c100 0 172.5 15.667 217.5 47s67.5 75.666 67.5 132.999c0 32.667 -8.66699 60 -26 82s-40.333 40.167 -69 54.5s-62.667 26.333 -102 36s-81.666 18.5 -126.999 26.5
c-50.667 9.33301 -101.5 22.166 -152.5 38.499s-97 39.666 -138 69.999s-74.5 68.666 -100.5 114.999s-39 104.833 -39 175.5c0 105.333 32.833 196.833 98.5 274.5s165.834 128.167 300.501 151.5v207h256v-196c78 -5.33301 148.667 -16 212 -32s124 -35 182 -57l-74 -245
c-82 27.333 -154.833 47.833 -218.5 61.5s-128.834 20.5 -195.501 20.5c-75.333 0 -134.833 -13 -178.5 -39s-65.5 -65 -65.5 -117c0 -30 7.16699 -54.833 21.5 -74.5s34.166 -36 59.499 -49s54.833 -23.667 88.5 -32s70.167 -16.5 109.5 -24.5
c53.333 -12 108 -26.333 164 -43s107.167 -40.334 153.5 -71.001s84.166 -71 113.499 -121s44 -113.667 44 -191c0 -116 -35.167 -213 -105.5 -291s-173.833 -130 -310.5 -156v-225h-256v211c-106.667 4 -198.834 17 -276.501 39s-139.834 42.333 -186.501 61z" />
    <glyph glyph-name="percent" unicode="%" horiz-adv-x="2027" 
d="M59 1057c0 58.667 8.66992 113.169 26.0029 163.502s42.666 94.666 75.999 132.999s75.166 68.5 125.499 90.5s109.166 33 176.499 33c58.667 0 111.167 -10.667 157.5 -32s85.166 -50.333 116.499 -87s55.333 -80.667 72 -132s25 -107 25 -167s-8.66699 -115 -26 -165
s-42.333 -93.333 -75 -130s-73.167 -65.334 -121.5 -86.001s-103.5 -31 -165.5 -31c-69.333 0 -127.833 10.667 -175.5 32s-87.167 50.333 -118.5 87s-54.666 80 -69.999 130s-23 103.667 -23 161zM305.003 0.00195312l1135 1456h299l-1131 -1456h-303zM305.003 1059
c0 -61.333 12.332 -110.5 36.999 -147.5s61 -55.5 109 -55.5c44 0 78.5 16.333 103.5 49s37.5 84 37.5 154c0 69.333 -12.667 121.166 -38 155.499s-59.666 51.5 -102.999 51.5c-48 0 -84.333 -18.167 -109 -54.5s-37 -87.166 -37 -152.499zM1194 383.002
c0 57.333 8.49902 111.67 25.499 163.003s42.333 95.666 76 132.999s75.334 67 125.001 89s107.834 33 174.501 33c58.667 0 111.334 -10.667 158.001 -32s85.667 -50.666 117 -87.999s55.166 -81.333 71.499 -132s24.5 -105.334 24.5 -164.001
c0 -60 -8.5 -115.333 -25.5 -166s-41.833 -94.334 -74.5 -131.001s-73.334 -65.334 -122.001 -86.001s-103.667 -31 -165 -31c-69.333 0 -128 10.667 -176 32s-87.667 50.333 -119 87c-30 38 -52.5 82 -67.5 132s-22.5 103.667 -22.5 161zM1438 385.006
c0 -62.667 12.166 -112.5 36.499 -149.5s60.5 -55.5 108.5 -55.5c44 0 78.5 16.833 103.5 50.5s37.5 85.167 37.5 154.5s-12.167 120.5 -36.5 153.5s-59.166 49.5 -104.499 49.5c-48 0 -84.167 -17.5 -108.5 -52.5s-36.5 -85.167 -36.5 -150.5z" />
    <glyph glyph-name="ampersand" unicode="&#x26;" horiz-adv-x="1495" 
d="M70 348c0 104 27.166 195.833 81.499 275.5s137.5 160.5 249.5 242.5c-64 80.667 -96 169.667 -96 267c0 50.667 11.667 98.334 35 143.001s55.5 84.167 96.5 118.5s90.167 61 147.5 80s120 28.5 188 28.5c72.667 0 135.834 -8.16699 189.501 -24.5
s109.167 -38.166 166.5 -65.499l-98 -233c-52 27.333 -97.667 46.666 -137 57.999s-75.666 17 -108.999 17c-50.667 0 -91.667 -11.833 -123 -35.5s-47 -56.167 -47 -97.5c0 -31.333 7.16699 -61.333 21.5 -90s33.166 -56.667 56.499 -84l322 -373l211 267l219 -158
l-246 -322l197 -221l-205 -186l-186 205c-65.333 -62.667 -135.333 -110.834 -210 -144.501s-161 -50.5 -259 -50.5c-90 0 -164.833 12 -224.5 36s-107.5 54.833 -143.5 92.5s-61.167 79 -75.5 124s-21.5 88.5 -21.5 130.5zM380.999 393c0 -20.667 3.33301 -41.167 10 -61.5
s17.5 -38.333 32.5 -54s34.5 -28.667 58.5 -39s53 -15.5 87 -15.5c46.667 0 90.167 11.333 130.5 34s82.166 57.667 125.499 105l-264 306c-61.333 -48 -106.666 -92.167 -135.999 -132.5s-44 -87.833 -44 -142.5z" />
    <glyph glyph-name="quotesingle" unicode="'" horiz-adv-x="436" 
d="M90 844v633h256v-633h-256z" />
    <glyph glyph-name="parenleft" unicode="(" horiz-adv-x="856" 
d="M82 580c0 57.333 12.668 111.83 38.001 163.497s52.333 100.834 81 147.501l381 614l233 -147l-360 -586c-19.333 -30 -36.833 -60.667 -52.5 -92s-23.5 -62.666 -23.5 -93.999c0 -36.667 9.16699 -72.167 27.5 -106.5s37.166 -67.166 56.499 -98.499l352 -571l-231 -154
l-389 610c-32.667 52 -59.667 103 -81 153s-32 103.667 -32 161z" />
    <glyph glyph-name="parenright" unicode=")" horiz-adv-x="856" 
d="M41 -190l352.001 571.002c19.333 31.333 38.166 64 56.499 98s27.5 69.667 27.5 107c0 31.333 -7.83301 62.666 -23.5 93.999s-33.167 62 -52.5 92l-360 586l233 147l381 -614c28.667 -46.667 55.667 -95.834 81 -147.501s38 -106.167 38 -163.5s-10.5 -111 -31.5 -161
s-47.833 -101 -80.5 -153l-390 -610z" />
    <glyph glyph-name="asterisk" unicode="*" 
d="M66 1071l73 227l262 -96l-10 275h246l-10 -275l258 96l73 -229l-264 -76l180 -223l-200 -145l-160 229l-164 -229l-200 145l180 223z" />
    <glyph glyph-name="plus" unicode="+" horiz-adv-x="1372" 
d="M209 571v244h352v363h250v-363h350v-244h-350v-356h-250v356h-352z" />
    <glyph glyph-name="comma" unicode="," horiz-adv-x="497" 
d="M47 -283l105 541l270 -59l-152 -531z" />
    <glyph glyph-name="hyphen" unicode="-" horiz-adv-x="962" 
d="M145 502v260h676v-260h-676z" />
    <glyph glyph-name="period" unicode="." horiz-adv-x="524" 
d="M92 143c0 50.667 13.667 92.334 41 125.001s70.333 49 129 49s101.667 -16.333 129 -49s41 -74.334 41 -125.001c0 -52 -13.667 -94.333 -41 -127s-70.333 -49 -129 -49c-60 0 -103 16.333 -129 49c-27.333 34 -41 76.333 -41 127z" />
    <glyph glyph-name="slash" unicode="/" horiz-adv-x="962" 
d="M-16 -160l700 1723h281l-701 -1723h-280z" />
    <glyph glyph-name="zero" unicode="0" horiz-adv-x="1425" 
d="M80 717c0 104 12.9971 202.333 38.9971 295s65.833 173.167 119.5 241.5s121.5 122.666 203.5 162.999s179 60.5 291 60.5c102.667 0 191.834 -19.167 267.501 -57.5s139.167 -91 190.5 -158s89.5 -146.167 114.5 -237.5s37.5 -190.333 37.5 -297s-13.5 -206 -40.5 -298
s-67.167 -171.5 -120.5 -238.5s-120 -119.667 -200 -158s-171.667 -57.5 -275 -57.5c-116 0 -213.667 19.167 -293 57.5s-143.666 90.166 -192.999 155.499c-49.333 66.667 -85.166 144.834 -107.499 234.501s-33.5 187.834 -33.5 294.501zM390.997 721
c0 -155.333 25.668 -277.168 77.001 -365.501s132.333 -132.5 243 -132.5c112 0 193.167 41.333 243.5 124s75.5 209.334 75.5 380.001c0 172 -25.167 298.333 -75.5 379s-131.5 121 -243.5 121c-56 0 -103.833 -12 -143.5 -36s-72.834 -58.167 -99.501 -102.5
s-46.167 -97.5 -58.5 -159.5s-18.5 -131.333 -18.5 -208z" />
    <glyph glyph-name="one" unicode="1" horiz-adv-x="1198" 
d="M92 1165l336 236c70.667 50.667 142.334 76 215.001 76c52 0 95.333 -14.667 130 -44s52 -79 52 -149v-1034h318v-250h-957v250h336v852c0 22 -6 33 -18 33c-6.66699 0 -16.334 -4.33301 -29.001 -13l-221 -157z" />
    <glyph glyph-name="two" unicode="2" horiz-adv-x="1212" 
d="M33 203c0 30 8.16797 62.3359 24.501 97.0029s45.5 69 87.5 103l488 390c57.333 44 99.333 85.667 126 125s40 83.666 40 132.999c0 30 -5.83301 55.5 -17.5 76.5s-26.667 38.333 -45 52s-39.833 23.667 -64.5 30s-49.334 9.5 -74.001 9.5
c-69.333 0 -136.5 -13.667 -201.5 -41s-126.167 -56 -183.5 -86l-123 213c32.667 20.667 69.5 41.167 110.5 61.5s84.667 38.666 131 54.999s94.5 29.666 144.5 39.999s100.333 15.5 151 15.5c78 0 146.667 -10 206 -30s109 -47.667 149 -83s70.667 -77.666 92 -126.999
s32 -103.333 32 -162c0 -53.333 -7.16699 -101.833 -21.5 -145.5s-34.833 -84.834 -61.5 -123.501s-58.5 -75.834 -95.5 -111.501s-77.833 -71.167 -122.5 -106.5l-363 -287c-9.33301 -8 -14 -17 -14 -27c0 -15.333 10.333 -22.666 31 -21.999h678v-252h-881
c-65.333 -0 -118.833 17.333 -160.5 52s-62.5 85 -62.5 151z" />
    <glyph glyph-name="three" unicode="3" horiz-adv-x="1198" 
d="M31 78l77.9971 253.999c82 -32.667 154 -57.667 216 -75s126.333 -26 193 -26c36.667 0 72.167 4.16699 106.5 12.5s64.833 21 91.5 38s48.167 39.167 64.5 66.5s24.5 61 24.5 101c0 26 -3.83301 50.833 -11.5 74.5s-21.667 44.667 -42 63s-48.666 33 -84.999 44
s-83.166 16.5 -140.499 16.5h-172v189l326 313c10.667 10.667 16 21 16 31c0 12 -10 18 -30 18h-551v260h710c86 0 147.167 -16.667 183.5 -50s54.5 -76.666 54.5 -129.999c0 -74 -38.333 -145 -115 -213l-239 -215c80.667 -5.33301 147.167 -21.333 199.5 -48
s93.833 -59.167 124.5 -97.5s52.167 -80.333 64.5 -126s18.5 -89.834 18.5 -132.501c0 -65.333 -13 -126.666 -39 -183.999s-64.167 -107.5 -114.5 -150.5s-112.333 -76.833 -186 -101.5s-158.5 -37 -254.5 -37c-60 0 -114.833 3.5 -164.5 10.5s-94.667 15.667 -135 26
s-76.166 21.5 -107.499 33.5s-59.333 23.667 -84 35z" />
    <glyph glyph-name="four" unicode="4" horiz-adv-x="1370" 
d="M68 559c0 69.333 36.666 144.333 109.999 225l633 674h260v-872h221v-254h-221v-332h-301v332h-438c-87.333 0 -153.166 21.167 -197.499 63.5s-66.5 96.833 -66.5 163.5zM351.999 616c0 -8 3.16797 -15.001 9.50098 -21.001s16.833 -9 31.5 -9h377v481l-401 -414
c-10.667 -15.333 -16.334 -27.666 -17.001 -36.999z" />
    <glyph glyph-name="five" unicode="5" horiz-adv-x="1234" 
d="M45 76l78.0029 253.999c82 -34 155.333 -59.333 220 -76s132 -25 202 -25c87.333 0 155.833 20.833 205.5 62.5s74.5 100.167 74.5 175.5s-23.833 131 -71.5 167s-108.5 54 -182.5 54c-36.667 0 -74.834 -4.33301 -114.501 -13s-85.5 -24 -137.5 -46l-149 90l25 739h872
v-260h-606l-12 -297c27.333 9.33301 59.666 16.5 96.999 21.5s74.333 7.5 111 7.5c62.667 0 123.5 -8.16699 182.5 -24.5s110.667 -42.666 155 -78.999s79.833 -83.166 106.5 -140.499s40 -127 40 -209c0 -69.333 -11.667 -134.5 -35 -195.5s-58.833 -114.333 -106.5 -160
s-109.5 -81.834 -185.5 -108.501s-165.667 -40 -269 -40c-122.667 0 -225.334 12 -308.001 36s-146.667 46.333 -192 67z" />
    <glyph glyph-name="six" unicode="6" horiz-adv-x="1341" 
d="M121 643c0 102.667 10.5 203.835 31.5 303.502s57.167 188.667 108.5 267s120.333 141.833 207 190.5s195.667 73 327 73c74 0 144 -7.16699 210 -21.5s131.667 -38.833 197 -73.5l-92 -227c-69.333 28.667 -129 47.167 -179 55.5s-96.667 12.5 -140 12.5
c-109.333 0 -190.666 -31.833 -243.999 -95.5s-86 -151.5 -98 -263.5c46.667 28.667 97.5 51.167 152.5 67.5s111.167 24.5 168.5 24.5c75.333 0 142.666 -11.167 201.999 -33.5s109.5 -54 150.5 -95s72.333 -90.167 94 -147.5s32.5 -121 32.5 -191
c0 -76.667 -13.667 -146.334 -41 -209.001s-65.166 -116.834 -113.499 -162.501s-106.333 -81.167 -174 -106.5s-141.167 -38 -220.5 -38c-188.667 0 -332.334 59.167 -431.001 177.5s-148 282.5 -148 492.5zM440 621.001c0 -80.667 9.16699 -152.833 27.5 -216.5
s52.833 -112.5 103.5 -146.5c34 -20.667 77.667 -31 131 -31c74 0 130.833 22.167 170.5 66.5s59.5 105.5 59.5 183.5c0 82 -22.167 141.5 -66.5 178.5s-102.166 55.5 -173.499 55.5c-50.667 0 -98.834 -10 -144.501 -30s-81.5 -40 -107.5 -60z" />
    <glyph glyph-name="seven" unicode="7" horiz-adv-x="1159" 
d="M51 1198v260h883c66.667 0 118.5 -14.333 155.5 -43s55.5 -67 55.5 -115s-16.333 -101 -49 -159l-629 -1141h-344l635 1135c9.33301 18 14 31 14 39c0 16.667 -11 24.667 -33 24h-688z" />
    <glyph glyph-name="eight" unicode="8" horiz-adv-x="1320" 
d="M92 385c0 74 20.499 143.333 61.499 208s97.167 121 168.5 169c-57.333 35.333 -100.333 79.333 -129 132s-43 109.667 -43 171c0 58.667 11.5 113 34.5 163s57 93.333 102 130s99.667 65.667 164 87s137.5 32 219.5 32c86 0 160.667 -10 224 -30s115.833 -47 157.5 -81
s72.834 -73.833 93.501 -119.5s31 -94.5 31 -146.5c0 -74 -16.5 -138.667 -49.5 -194s-75.5 -103.333 -127.5 -144c153.333 -73.333 230 -188.666 230 -345.999c0 -62.667 -13 -121 -39 -175s-63.5 -100.833 -112.5 -140.5s-110.167 -70.834 -183.5 -93.501
s-157 -34 -251 -34c-95.333 0 -177.5 10.667 -246.5 32s-126 50.333 -171 87s-78.5 80 -100.5 130s-33 104.333 -33 163zM405.999 406c0 -50.667 20 -93.166 60 -127.499s103 -51.5 189 -51.5c83.333 0 146.833 18.167 190.5 54.5s65.5 83.166 65.5 140.499
c0 50.667 -16.333 90 -49 118s-77.667 48.667 -135 62l-166 43c-44 -30 -80.833 -64.167 -110.5 -102.5s-44.5 -83.833 -44.5 -136.5zM452.999 1065c0 -40.667 13.667 -76.168 41 -106.501s70.333 -52.833 129 -67.5l127 -33c34 27.333 61.833 59.5 83.5 96.5
s32.5 76.5 32.5 118.5c0 36.667 -16 71.5 -48 104.5s-83.333 49.5 -154 49.5c-69.333 0 -121.833 -16.167 -157.5 -48.5s-53.5 -70.166 -53.5 -113.499z" />
    <glyph glyph-name="nine" unicode="9" horiz-adv-x="1331" 
d="M106 950c0 78 13.6699 149.499 41.0029 214.499s65.666 120.333 114.999 166s107.833 81.5 175.5 107.5s141.5 39 221.5 39c91.333 0 173 -15.5 245 -46.5s132.5 -75.167 181.5 -132.5s86.167 -127.5 111.5 -210.5s38 -176.5 38 -280.5
c0 -105.333 -9.5 -208.166 -28.5 -308.499s-53.5 -189.333 -103.5 -267s-118.333 -140.167 -205 -187.5s-197.667 -71 -333 -71c-74 0 -147.833 6.83301 -221.5 20.5s-141.167 36.167 -202.5 67.5l92 238c61.333 -27.333 120.166 -46.166 176.499 -56.499
s108.166 -15.5 155.499 -15.5c114.667 0 198 31.167 250 93.5s84 148.166 96 257.499c-44 -28.667 -93.833 -50.667 -149.5 -66s-114.167 -23 -175.5 -23c-76.667 0 -144.667 11 -204 33s-109.5 53.167 -150.5 93.5s-72.167 88.833 -93.5 145.5s-32 119.667 -32 189z
M424.003 972.999c-0.666992 -80.667 21.002 -140.668 65.002 -180.001c44 -38 102.333 -57.333 175 -58c50.667 0 99.167 10 145.5 30s82.5 40 108.5 60c0 50.667 -3.83301 99.834 -11.5 147.501s-21.334 90 -41.001 127s-46.334 66.5 -80.001 88.5s-77.167 33 -130.5 33
c-74 0 -131 -21.833 -171 -65.5s-60 -104.5 -60 -182.5z" />
    <glyph glyph-name="colon" unicode=":" horiz-adv-x="514" 
d="M86 143c0 50.667 13.667 92.334 41 125.001s70.333 49 129 49s101.667 -16.333 129 -49s41 -74.334 41 -125.001c0 -52 -13.667 -94.333 -41 -127s-70.333 -49 -129 -49c-60 0 -103 16.333 -129 49c-27.333 34 -41 76.333 -41 127zM86 866
c0 50.667 13.667 92.668 41 126.001s70.333 50 129 50s101.667 -16.667 129 -50s41 -75.333 41 -126s-13.667 -92.667 -41 -126s-70.333 -50 -129 -50c-60 0 -103 16.333 -129 49c-27.333 35.333 -41 77.666 -41 126.999z" />
    <glyph glyph-name="semicolon" unicode=";" horiz-adv-x="542" 
d="M51 -283l103 543l272 -61l-158 -531zM121 866c0 50.667 13.667 92.668 41 126.001s70.333 50 129 50c57.333 0 100 -16.667 128 -50s42 -75.333 42 -126s-14 -92.667 -42 -126s-70.667 -50 -128 -50c-60 0 -103 16.333 -129 49c-27.333 35.333 -41 77.666 -41 126.999z
" />
    <glyph glyph-name="less" unicode="&#x3c;" horiz-adv-x="1372" 
d="M147 674c0 61.333 19.501 111.5 58.501 150.5s93.5 72.833 163.5 101.5l759 313l97 -248l-695 -286c-18 -8 -26.667 -18.333 -26 -31c0 -12 9.33301 -22.333 28 -31l693 -293l-97 -252l-759 320c-72.667 30 -127.834 63 -165.501 99s-56.5 88.333 -56.5 157z" />
    <glyph glyph-name="equal" unicode="=" horiz-adv-x="1372" 
d="M209 375v250h952v-250h-952zM209 764v252h952v-252h-952z" />
    <glyph glyph-name="greater" unicode="&#x3e;" horiz-adv-x="1372" 
d="M147 350l693.001 289c19.333 8 28.666 18.333 27.999 31c0 12 -8.66699 22 -26 30l-695 291l97 248l760 -313c68 -28.667 121.833 -61.167 161.5 -97.5s59.5 -84.5 59.5 -144.5c0 -69.333 -18.5 -123.5 -55.5 -162.5s-92.167 -73.5 -165.5 -103.5l-760 -320z" />
    <glyph glyph-name="question" unicode="?" horiz-adv-x="1200" 
d="M66 1325c66.667 46.667 144.334 87.334 233.001 122.001s190.334 52 305.001 52c83.333 0 158.166 -9.5 224.499 -28.5s122 -45.667 167 -80s79.5 -74.333 103.5 -120s36 -95.167 36 -148.5c0 -45.333 -5.83301 -85.333 -17.5 -120s-28.167 -67 -49.5 -97
s-46.333 -57.667 -75 -83s-59.334 -50 -92.001 -74l-102 -74l-49.5 -39.5c-13.667 -11 -25 -22.167 -34 -33.5s-15.5 -23.833 -19.5 -37.5s-6 -30.834 -6 -51.501v-68h-291v103c0 57.333 8.33301 106.833 25 148.5s53.667 82.834 111 123.501l127 92
c44 31.333 79.5 61 106.5 89s40.5 60 40.5 96c0 48 -22.167 83.5 -66.5 106.5s-101.5 34.5 -171.5 34.5c-65.333 0 -127 -12.333 -185 -37s-121 -57.334 -189 -98.001zM375 143c0 50.667 14.001 92.334 42.001 125.001s71.333 49 130 49c57.333 0 100 -16.333 128 -49
s42 -74.334 42 -125.001c0 -52 -14 -94.333 -42 -127s-70.667 -49 -128 -49c-58.667 0 -102.334 16.333 -131.001 49c-27.333 34 -41 76.333 -41 127z" />
    <glyph glyph-name="at" unicode="@" horiz-adv-x="1943" 
d="M86 473c0 134 24.499 257 73.499 369s115.833 208.167 200.5 288.5s184 143 298 188s236.667 67.5 368 67.5c132.667 0 250.834 -18.667 354.501 -56s190.667 -89.833 261 -157.5s124 -148.167 161 -241.5s55.5 -196 55.5 -308c0 -90 -13 -172 -39 -246
s-63 -137.667 -111 -191s-106 -95.666 -174 -126.999s-143.667 -49.666 -227 -54.999c-19.333 -1.33301 -41.333 -2.33301 -66 -3s-46.334 -1 -65.001 -1h-238c-49.333 0 -95.833 5.16699 -139.5 15.5s-81.167 26.666 -112.5 48.999s-56.166 51.666 -74.499 87.999
s-27.5 80.5 -27.5 132.5c0 62.667 12.167 112.834 36.5 150.501s56.333 66.334 96 86.001s83.834 32.5 132.501 38.5s96.667 9 144 9h105v13c0 39.333 -8.16699 69.666 -24.5 90.999s-46.5 32 -90.5 32c-35.333 0 -72.833 -3.83301 -112.5 -11.5
s-86.834 -21.167 -141.501 -40.5l-74 195c48 20.667 103 38.5 165 53.5s130 22.5 204 22.5c69.333 0 125.5 -9 168.5 -27s75.833 -42.667 98.5 -74s37.834 -68.833 45.501 -112.5s11.5 -91.5 11.5 -143.5v-329c74 10.667 133.333 46 178 106s67 150 67 270
c0 165.333 -47 295.166 -141 389.499s-236 141.5 -426 141.5c-102.667 0 -194.834 -15.667 -276.501 -47s-151.5 -76 -209.5 -134s-102.5 -128 -133.5 -210s-46.5 -173.667 -46.5 -275c0 -106.667 15.833 -201.834 47.5 -285.501s77.167 -155 136.5 -214
s132 -104.167 218 -135.5s184.333 -47 295 -47c108 0 198.833 10 272.5 30s133.5 39.333 179.5 58l80 -219c-18 -9.33301 -45 -20.166 -81 -32.499s-78.5 -24 -127.5 -35s-103.333 -20.167 -163 -27.5s-122.167 -11 -187.5 -11c-139.333 0 -267 20.167 -383 60.5
s-215.333 99.333 -298 177s-147.167 173.167 -193.5 286.5s-69.5 243 -69.5 389zM837.999 303c0 -31.333 10.168 -53.833 30.501 -67.5s46.166 -20.5 77.499 -20.5h154v172h-158c-28.667 0 -53.167 -6.5 -73.5 -19.5s-30.5 -34.5 -30.5 -64.5z" />
    <glyph glyph-name="A" unicode="A" horiz-adv-x="1505" 
d="M25 37l356.004 1175c13.333 46.667 30 88.167 50 124.5s44.667 66.666 74 90.999s65.166 43 107.499 56s92.166 19.5 149.499 19.5c56 0 103.833 -6.16699 143.5 -18.5s73.167 -30.333 100.5 -54s50.166 -52.667 68.499 -87s34.166 -73.166 47.499 -116.499l359 -1190
l-307 -68l-134 451h-581l-135 -451zM530.004 680h435l-140 494c-8 27.333 -18.167 45.333 -30.5 54s-26.5 13 -42.5 13c-18 0 -32.833 -4.83301 -44.5 -14.5s-21.5 -27.167 -29.5 -52.5z" />
    <glyph glyph-name="B" unicode="B" horiz-adv-x="1378" 
d="M141 0v1477h584c70.667 0 136.834 -6.83301 198.501 -20.5s115.334 -35.5 161.001 -65.5s81.5 -69 107.5 -117s39 -105.333 39 -172c0 -36.667 -4.83301 -70.834 -14.5 -102.501s-22.667 -60.5 -39 -86.5s-34.666 -49.167 -54.999 -69.5s-41.5 -37.833 -63.5 -52.5
c32.667 -12 63.667 -28.333 93 -49s55.666 -45.667 78.999 -75s41.833 -62.833 55.5 -100.5s20.5 -79.834 20.5 -126.501c0 -70.667 -12.667 -133.334 -38 -188.001s-60.833 -100.834 -106.5 -138.501s-100.334 -66 -164.001 -85s-133.834 -28.5 -210.501 -28.5h-647z
M444 256.004l316 0.000976562c62.667 0 116.5 14.667 161.5 44s67.5 78 67.5 146c0 38 -7.16699 69.833 -21.5 95.5s-33.833 45.667 -58.5 60s-54 24.166 -88 29.499s-70 8 -108 8h-269v-383zM444 883.005h256c61.333 0 113.333 13 156 39s64 71 64 135
c0 66.667 -22.667 110.667 -68 132s-113 32 -203 32h-205v-338z" />
    <glyph glyph-name="C" unicode="C" horiz-adv-x="1421" 
d="M78 737c0 110.667 16.333 212.837 49 306.504s81.167 174.667 145.5 243s144.166 121.5 239.499 159.5s206 57 332 57c102.667 0 193.167 -10.167 271.5 -30.5s152.166 -45.5 221.499 -75.5l-94 -248c-49.333 20.667 -92.666 36.667 -129.999 48
s-71.666 20.166 -102.999 26.499s-60.666 10.5 -87.999 12.5s-55.333 3 -84 3c-140.667 0 -248.667 -43.333 -324 -130s-113 -210.667 -113 -372c0 -172 37.667 -299.667 113 -383s182.666 -125 321.999 -125c39.333 0 75.333 2.16699 108 6.5s65.167 10.5 97.5 18.5
s66.166 18.5 101.499 31.5s76.333 29.167 123 48.5l94 -242c-44 -20.667 -86.5 -38.834 -127.5 -54.501s-83.333 -28.834 -127 -39.501s-89 -18.834 -136 -24.501s-98.5 -8.5 -154.5 -8.5c-135.333 0 -249.666 19.5 -342.999 58.5s-169 93 -227 162
s-100.333 150.5 -127 244.5s-40 196.333 -40 307z" />
    <glyph glyph-name="D" unicode="D" horiz-adv-x="1560" 
d="M141 0l-0.000976562 1477h611c116 0 219.333 -17.833 310 -53.5s167 -85.5 229 -149.5s109.5 -141.167 142.5 -231.5s49.5 -190.166 49.5 -299.499c0 -108 -14.667 -207.333 -44 -298s-74.166 -169 -134.499 -235s-136.5 -117.5 -228.5 -154.5s-200 -55.5 -324 -55.5
h-611zM448.999 259.999h288c135.333 0 239.5 37.167 312.5 111.5s109.5 194.833 109.5 361.5c0 168 -36.833 290.667 -110.5 368s-177.5 116 -311.5 116h-288v-957z" />
    <glyph glyph-name="E" unicode="E" horiz-adv-x="1294" 
d="M141 0v1477h1061v-260h-758v-316h586v-262h-586v-379h775v-260h-1078z" />
    <glyph glyph-name="F" unicode="F" horiz-adv-x="1273" 
d="M141 0v1477h1061v-260h-756v-316h584v-262h-584v-639h-305z" />
    <glyph glyph-name="G" unicode="G" horiz-adv-x="1558" 
d="M78 737c0 110.667 17.334 212.834 52.001 306.501s85.5 174.667 152.5 243s149.667 121.5 248 159.5s210.166 57 335.499 57c102.667 0 194.667 -10.167 276 -30.5s156.666 -45.5 225.999 -75.5l-94 -248c-49.333 20.667 -93.166 36.667 -131.499 48
s-73.833 20.166 -106.5 26.499s-63 10.5 -91 12.5s-56.333 3 -85 3c-140.667 0 -252.334 -43.333 -335.001 -130s-124 -210.667 -124 -372c0 -172 36.167 -299.333 108.5 -382s176.166 -124 311.499 -124c61.333 0 117.333 5.83301 168 17.5s92.334 26.5 125.001 44.5v280
h-305v263h614v-699c-35.333 -24.667 -76.166 -47.5 -122.499 -68.5s-95.5 -39 -147.5 -54s-106.333 -27 -163 -36s-113 -13.5 -169 -13.5c-139.333 0 -256.333 19.5 -351 58.5s-171 93 -229 162s-99.667 150.5 -125 244.5s-38 196.333 -38 307z" />
    <glyph glyph-name="H" unicode="H" horiz-adv-x="1511" 
d="M141 0v1477h318v-590h594v590h317v-1477h-317v618h-594v-618h-318z" />
    <glyph glyph-name="I" unicode="I" horiz-adv-x="602" 
d="M145 0v1477h312v-1477h-312z" />
    <glyph glyph-name="J" unicode="J" horiz-adv-x="1097" 
d="M20 63l117 249.998c35.333 -22 80 -41.167 134 -57.5s109.667 -24.5 167 -24.5c30 0 58.667 3.5 86 10.5s51 19 71 36s35.667 40.5 47 70.5s17 69 17 117v1012h306v-1020c0 -165.333 -43.333 -288.666 -130 -369.999s-214.667 -122 -384 -122
c-48 0 -93.5 3.16699 -136.5 9.5s-83 13.833 -120 22.5s-70.167 18.834 -99.5 30.501s-54.333 23.5 -75 35.5z" />
    <glyph glyph-name="K" unicode="K" horiz-adv-x="1413" 
d="M141 0v1477h308v-603h59c52 0 92.333 18.667 121 56l465 569l233 -172l-475 -567l551 -598l-227 -197l-541 586c-19.333 20.667 -37.833 36.334 -55.5 47.001s-42.167 16 -73.5 16h-57v-614h-308z" />
    <glyph glyph-name="L" unicode="L" horiz-adv-x="1255" 
d="M141 0v1477h305v-1217h773v-260h-1078z" />
    <glyph glyph-name="M" unicode="M" horiz-adv-x="1718" 
d="M141 0l-0.00292969 1477h287l383 -680c10.667 -19.333 19.834 -32.833 27.501 -40.5s16.834 -11.5 27.501 -11.5s19.834 3.83301 27.501 11.5s17.167 21.167 28.5 40.5l378 680h277v-1477h-301v901l-156 -268c-44 -78 -87 -130.333 -129 -157s-87 -40 -135 -40
c-49.333 0 -94.5 14 -135.5 42s-82.5 80.333 -124.5 157l-150 264v-899h-305z" />
    <glyph glyph-name="N" unicode="N" horiz-adv-x="1527" 
d="M141 0l-0.000976562 1477h314l635 -1102v1102h296v-1133c0 -34 -1.66699 -69.833 -5 -107.5s-7.66602 -65.834 -12.999 -84.501c-10.667 -36.667 -24.667 -66 -42 -88s-35.5 -38.5 -54.5 -49.5s-38 -17.833 -57 -20.5s-36.167 -4 -51.5 -4
c-57.333 0 -107.833 17.333 -151.5 52s-90.167 94.334 -139.5 179.001l-432 717v-938h-299z" />
    <glyph glyph-name="O" unicode="O" horiz-adv-x="1585" 
d="M78 735c0 98 13.333 193.167 40 285.5s69 174.333 127 246s132 129 222 172s198.667 64.5 326 64.5c132.667 0 244.334 -21.5 335.001 -64.5s164 -100.333 220 -172s96.5 -153.5 121.5 -245.5s37.5 -187.333 37.5 -286c0 -98 -13.333 -193.5 -40 -286.5
s-69 -175.333 -127 -247s-132 -129 -222 -172s-198.333 -64.5 -325 -64.5c-132.667 0 -244.334 21.667 -335.001 65s-164.667 100.333 -222 171c-57.333 74 -98 157 -122 249s-36 187 -36 285zM401 735c0 -106.667 17.332 -200.666 51.999 -281.999s89 -142.333 163 -183
c48 -26 107 -39 177 -39c68 0 126.5 13.333 175.5 40s89.667 62.5 122 107.5s56 98.333 71 160s22.5 127.167 22.5 196.5s-7.5 134.5 -22.5 195.5s-38.667 114.333 -71 160s-73 81.5 -122 107.5s-107.5 39 -175.5 39s-126.667 -13 -176 -39s-90.166 -61.833 -122.499 -107.5
s-56 -98.834 -71 -159.501s-22.5 -126 -22.5 -196z" />
    <glyph glyph-name="P" unicode="P" horiz-adv-x="1302" 
d="M141 0v1477h566c70.667 0 137.834 -9 201.501 -27s119.334 -46.333 167.001 -85s85.5 -88.834 113.5 -150.501s42 -135.5 42 -221.5c0 -75.333 -13.667 -143 -41 -203s-64.833 -110.833 -112.5 -152.5s-104.334 -73.667 -170.001 -96s-136.834 -33.5 -213.501 -33.5h-248
v-508h-305zM446 766.001h221.999c30 0 60 3.33301 90 10s56.833 19 80.5 37s42.834 41.333 57.501 70s22 64.667 22 108c0 49.333 -6.83301 89.333 -20.5 120s-32.5 54.5 -56.5 71.5s-51 28.333 -81 34s-61.333 8.5 -94 8.5h-220v-459z" />
    <glyph glyph-name="Q" unicode="Q" horiz-adv-x="1589" 
d="M78 735c0 98 13.3359 193.167 40.0029 285.5s69 174.333 127 246s132 129 222 172s198.667 64.5 326 64.5c132.667 0 244.334 -21.5 335.001 -64.5s164 -100.333 220 -172s96.5 -153.5 121.5 -245.5s37.5 -187.333 37.5 -286c0 -112 -17.333 -219.833 -52 -323.5
s-90.334 -192.5 -167.001 -266.5l225 -276l-227 -182l-254 311c-69.333 -22 -149 -33 -239 -33c-132.667 0 -244.334 21.5 -335.001 64.5s-164.334 100.333 -221.001 172s-97.334 154 -122.001 247s-37 188.5 -37 286.5zM401.003 735
c0 -106.667 17.332 -200.666 51.999 -281.999s89 -142.333 163 -183c48 -26 107 -39 177 -39c68 0 126.5 13.333 175.5 40s89.667 62.5 122 107.5s56 98.333 71 160s22.5 127.167 22.5 196.5s-7.5 134.5 -22.5 195.5s-38.667 114.333 -71 160s-73 81.5 -122 107.5
s-107.5 39 -175.5 39s-126.667 -13 -176 -39s-90.166 -61.833 -122.499 -107.5s-56 -98.834 -71 -159.501s-22.5 -126 -22.5 -196z" />
    <glyph glyph-name="R" unicode="R" horiz-adv-x="1366" 
d="M141 0v1477h564c70.667 0 137 -7.16699 199 -21.5s116 -38.333 162 -72s81.833 -77.5 107.5 -131.5s38.5 -120.333 38.5 -199c0 -53.333 -8.5 -103.166 -25.5 -149.499s-39.833 -88 -68.5 -125s-62 -68.5 -100 -94.5s-77.667 -45.667 -119 -59
c23.333 -10.667 44.166 -25 62.499 -43s37.833 -39.333 58.5 -64l326 -379l-236 -170l-365 428c-24.667 28.667 -46.5 52.667 -65.5 72s-36.667 34.666 -53 45.999s-32.666 19.166 -48.999 23.499s-34.833 6.5 -55.5 6.5h-73v-545h-308zM449 801.001l198 -0.00195312
c78 0 139.833 17.667 185.5 53s68.5 88 68.5 158c0 44 -6.16699 79.833 -18.5 107.5s-29.333 49.334 -51 65.001s-48.167 26.334 -79.5 32.001s-66.333 8.5 -105 8.5h-198v-424z" />
    <glyph glyph-name="S" unicode="S" horiz-adv-x="1320" 
d="M41 76l85.9971 260.001c176 -70.667 336.333 -106.334 481 -107.001c110.667 0 191.334 17.167 242.001 51.5s76 80.833 76 139.5c0 32.667 -7.5 60.334 -22.5 83.001s-36.167 41.5 -63.5 56.5s-60.5 27.5 -99.5 37.5s-81.833 19.333 -128.5 28
c-61.333 10.667 -122.333 24.5 -183 41.5s-114.5 41.167 -161.5 72.5s-85.167 71.666 -114.5 120.999s-44 111.666 -44 186.999c0 65.333 10.833 125.666 32.5 180.999s56.667 103.5 105 144.5s111.5 73 189.5 96s172.333 34.5 283 34.5c98 0 190.333 -10.167 277 -30.5
s163.667 -44.166 231 -71.499l-76 -250c-82 28.667 -159.833 50.834 -233.5 66.501s-145.5 23.5 -215.5 23.5c-94 0 -163.167 -14 -207.5 -42s-66.5 -68.667 -66.5 -122c0 -57.333 25.667 -98.166 77 -122.499s122.666 -44.833 213.999 -61.5
c62.667 -12 125.334 -26.667 188.001 -44s119.334 -42.333 170.001 -75s91.667 -75.334 123 -128.001s47 -120.667 47 -204c0 -72.667 -14 -138.167 -42 -196.5s-69 -108.333 -123 -150s-120.5 -73.834 -199.5 -96.501s-170.5 -34 -274.5 -34
c-62.667 0 -122.667 3.83301 -180 11.5s-110.166 16.834 -158.499 27.501s-92 22.5 -131 35.5s-71.5 25.167 -97.5 36.5z" />
    <glyph glyph-name="T" unicode="T" horiz-adv-x="1249" 
d="M31 1217v260h1188v-260h-441v-1217h-307v1217h-440z" />
    <glyph glyph-name="U" unicode="U" horiz-adv-x="1499" 
d="M135 612v865h307v-822c0 -66.667 3.83301 -126.667 11.5 -180s22.667 -98.333 45 -135s53.333 -65 93 -85s92.5 -30 158.5 -30c64 0 115.833 10 155.5 30s70.667 48 93 84s37.333 80 45 132s11.5 110 11.5 174v832h309v-838c0 -98 -8.5 -188.333 -25.5 -271
s-48.333 -153.667 -94 -213s-108.5 -105.833 -188.5 -139.5s-182 -50.5 -306 -50.5c-126.667 0 -230.167 15 -310.5 45s-143 73 -188 129s-75.667 124 -92 204s-24.5 169.667 -24.5 269z" />
    <glyph glyph-name="V" unicode="V" horiz-adv-x="1497" 
d="M20 1436l299.001 65.001l359 -1198c9.33301 -31.333 19.166 -52.166 29.499 -62.499s24.5 -15.5 42.5 -15.5s32 5.16699 42 15.5s19.667 31.166 29 62.499l365 1198l291 -65l-359 -1196c-12 -39.333 -28 -75.833 -48 -109.5s-44.667 -62.834 -74 -87.501
s-64.5 -43.834 -105.5 -57.501s-87.833 -20.5 -140.5 -20.5c-112 0 -196 24.333 -252 73s-96.333 115.334 -121 200.001z" />
    <glyph glyph-name="W" unicode="W" horiz-adv-x="1945" 
d="M68 1454l303.001 43.001l127 -1063c8 -70.667 27 -121.334 57 -152.001s74.333 -46 133 -46c20.667 0 42.5 2.33301 65.5 7s44.167 12.334 63.5 23.001v1211h309v-1209c19.333 -10.667 41 -18.334 65 -23.001s48.333 -7 73 -7c52 0 93.333 14 124 42s50 78.667 58 152
l125 1065l307 -43l-131 -1069c-8 -62.667 -22.333 -119.667 -43 -171s-49.334 -95 -86.001 -131s-82 -64 -136 -84s-118 -30 -192 -30c-61.333 0 -120 6.16699 -176 18.5s-104.333 31.5 -145 57.5c-48 -24.667 -96.833 -43.5 -146.5 -56.5s-105.5 -19.5 -167.5 -19.5
c-78 0 -143.833 10 -197.5 30s-98.667 48 -135 84s-64 79.667 -83 131s-32.5 108.333 -40.5 171z" />
    <glyph glyph-name="X" unicode="X" horiz-adv-x="1517" 
d="M27 121l462.002 637.001l-401 594l256 149l348 -518c10.667 -18 20.167 -31 28.5 -39s20.166 -12 35.499 -12s26.666 3.66699 33.999 11s16.333 20.666 27 39.999l338 514l254 -147l-387 -582l469 -647l-240 -156l-422 572c-15.333 20.667 -27.333 35 -36 43
s-19.667 12 -33 12s-24.833 -4.16699 -34.5 -12.5s-22.167 -22.5 -37.5 -42.5l-420 -572z" />
    <glyph glyph-name="Y" unicode="Y" horiz-adv-x="1388" 
d="M20 1384l275 115l309 -665c15.333 -31.333 29.5 -51.833 42.5 -61.5s28.167 -14.5 45.5 -14.5c20.667 0 37.167 5 49.5 15s25.833 31 40.5 63l312 663l274 -110l-281 -605c-34 -74 -68.667 -134.5 -104 -181.5s-82.333 -81.167 -141 -102.5v-500h-310v498
c-56 19.333 -100.667 51 -134 95s-66.333 102.333 -99 175z" />
    <glyph glyph-name="Z" unicode="Z" horiz-adv-x="1357" 
d="M61 197c0 23.333 5.83301 49.999 17.5 79.999s35.5 66.667 71.5 110l690 830h-686v260h1122v-191l-817 -973c-4 -5.33301 -7.5 -9.66602 -10.5 -12.999s-4.5 -8.33301 -4.5 -15c0 -16.667 11.667 -25 35 -25h793v-260h-961c-82 0 -144.167 17 -186.5 51
s-63.5 82.667 -63.5 146z" />
    <glyph glyph-name="bracketleft" unicode="[" horiz-adv-x="782" 
d="M139 -297v1774h602v-244h-313v-1286h313v-244h-602z" />
    <glyph glyph-name="backslash" unicode="\" horiz-adv-x="976" 
d="M2 1563h303l699 -1723h-304z" />
    <glyph glyph-name="bracketright" unicode="]" horiz-adv-x="782" 
d="M41 -53h313v1286h-313v244h602v-1774h-602v244z" />
    <glyph glyph-name="asciicircum" unicode="^" horiz-adv-x="1159" 
d="M76 774l230.999 512.001c32.667 74 69.834 128.667 111.501 164s97.5 53 167.5 53c66.667 0 119.167 -15.333 157.5 -46s73.833 -84.334 106.5 -161.001l233 -522l-243 -92l-199 446c-8 19.333 -15.833 34.5 -23.5 45.5s-19.5 16.5 -35.5 16.5
c-18 0 -30.833 -5.83301 -38.5 -17.5s-15.5 -27.167 -23.5 -46.5l-196 -444z" />
    <glyph glyph-name="underscore" unicode="_" horiz-adv-x="1230" 
d="M102 0h1026v-250h-1026v250z" />
    <glyph glyph-name="grave" unicode="`" 
d="M254 1532l238 162l270 -412l-176 -123z" />
    <glyph glyph-name="a" unicode="a" horiz-adv-x="1128" 
d="M57 301c0 62.667 12.0029 115.833 36.0029 159.5s56.167 78.834 96.5 105.501s85.666 45.834 135.999 57.501s102.166 17.5 155.499 17.5h219v37c0 57.333 -15.667 98 -47 122s-74.333 36 -129 36c-42 0 -85.167 -3.5 -129.5 -10.5s-100.833 -22.167 -169.5 -45.5
l-80 217c57.333 22 120.833 40.833 190.5 56.5s146.167 23.5 229.5 23.5c87.333 0 159 -10.167 215 -30.5s100.167 -49.333 132.5 -87s54.5 -82.834 66.5 -135.501s18 -111.667 18 -177v-399l101 -146l-213 -149l-88 104c-35.333 -20.667 -82.833 -41.167 -142.5 -61.5
s-124.834 -30.5 -195.501 -30.5c-56 0 -108.333 6.16699 -157 18.5s-91 31.833 -127 58.5s-64.667 61.167 -86 103.5s-32 94.166 -32 155.499zM360.003 310.999c0 -42 12.668 -73.666 38.001 -94.999s61.333 -32 108 -32c40.667 0 77.167 5.5 109.5 16.5
s62.166 25.5 89.499 43.5v190h-203c-44 0 -78.667 -10.833 -104 -32.5s-38 -51.834 -38 -90.501z" />
    <glyph glyph-name="b" unicode="b" horiz-adv-x="1206" 
d="M125 25v1452h299v-435c28.667 10.667 62.834 19.167 102.501 25.5s79.167 9.5 118.5 9.5c70.667 0 136.167 -11.5 196.5 -34.5s112 -57.833 155 -104.5s76.5 -103.667 100.5 -171s36 -146.333 36 -237c0 -84.667 -12.333 -161.667 -37 -231s-61 -128.666 -109 -177.999
s-106.333 -87.666 -175 -114.999s-148.334 -41 -239.001 -41c-57.333 0 -125.833 3.83301 -205.5 11.5s-160.5 23.834 -242.5 48.501zM424 224.997c22 -5.33301 44.499 -8.99902 67.499 -10.999s50.833 -3 83.5 -3c34 0 66.5 5.83301 97.5 17.5s57.667 30.167 80 55.5
s40 57.666 53 96.999s19.5 87 19.5 143c0 109.333 -22.167 186.833 -66.5 232.5s-99.166 68.5 -164.499 68.5c-60 0 -116.667 -10 -170 -30v-570z" />
    <glyph glyph-name="c" unicode="c" horiz-adv-x="1124" 
d="M74 514c0 79.333 12.998 153.495 38.998 222.495s63.5 128.667 112.5 179s109 89.833 180 118.5s151.5 43 241.5 43c82 0 155.833 -6.83301 221.5 -20.5s124.167 -32.167 175.5 -55.5l-94 -233c-36.667 13.333 -68.667 23.833 -96 31.5s-51.833 13.5 -73.5 17.5
s-42.167 6.33301 -61.5 7s-39.333 1 -60 1c-45.333 0 -85 -7.83301 -119 -23.5s-62.833 -37.167 -86.5 -64.5s-41.667 -59.666 -54 -96.999s-18.5 -78.666 -18.5 -123.999c0 -98 26.667 -172.667 80 -224s121 -77 203 -77c20.667 0 41.5 1 62.5 3s43.333 5.83301 67 11.5
s49.834 13.5 78.501 23.5s61 22.667 97 38l88 -236c-61.333 -27.333 -125.833 -49.166 -193.5 -65.499s-139.167 -24.5 -214.5 -24.5c-100 0 -186 13.667 -258 41s-131.667 65.333 -179 114s-82.166 106.334 -104.499 173.001s-33.5 140.334 -33.5 221.001z" />
    <glyph glyph-name="d" unicode="d" horiz-adv-x="1232" 
d="M74 506c0 84.667 12.165 162.167 36.498 232.5s60.5 130.333 108.5 180s106.833 88.5 176.5 116.5s148.834 42 237.501 42c30 0 57.333 -1 82 -3s48.334 -4.33301 71.001 -7v412h299v-1231l103 -150l-213 -147l-90 100c-40.667 -23.333 -88 -43.5 -142 -60.5
s-112 -25.5 -174 -25.5c-87.333 0 -162 13.667 -224 41s-113.167 65.333 -153.5 114s-70 105.667 -89 171s-28.5 137 -28.5 215zM380.998 506c0 -106.667 20.835 -181.501 62.502 -224.501s97.167 -64.5 166.5 -64.5c31.333 0 63.166 5.5 95.499 16.5
s59.166 23.167 80.499 36.5v543c-22 4 -44.167 7.33301 -66.5 10s-45.833 4 -70.5 4c-38 0 -73.333 -6 -106 -18s-61 -31 -85 -57s-42.833 -59.167 -56.5 -99.5s-20.5 -89.166 -20.5 -146.499z" />
    <glyph glyph-name="e" unicode="e" horiz-adv-x="1183" 
d="M74 518c0 72.667 11.5 142.67 34.5 210.003s57.833 127 104.5 179s103.334 93.333 170.001 124s144.334 46 233.001 46c83.333 0 155.166 -13 215.499 -39s110.166 -63.167 149.499 -111.5s68.666 -107 87.999 -176s29 -145.833 29 -230.5l-86 -82h-617
c2.66699 -65.333 28.334 -118.5 77.001 -159.5s116.667 -61.5 204 -61.5c52 0 105.333 6.16699 160 18.5s114.667 30.166 180 53.499l80 -230c-54.667 -23.333 -120 -44.833 -196 -64.5s-159.667 -29.5 -251 -29.5c-105.333 0 -194.5 13.667 -267.5 41
s-132.333 65.666 -178 114.999s-78.667 107.666 -99 174.999s-30.5 141.333 -30.5 222zM399 635.003h382.999c-1.33301 69.333 -18.333 119.833 -51 151.5s-73 47.5 -121 47.5c-57.333 0 -105.666 -18.833 -144.999 -56.5s-61.333 -85.167 -66 -142.5z" />
    <glyph glyph-name="f" unicode="f" horiz-adv-x="819" 
d="M45 799v243.002h131v107c0 50.667 8.16699 98.167 24.5 142.5s42 82.166 77 113.499s78.667 56.166 131 74.499s114.833 27.5 187.5 27.5c38 0 76.833 -3 116.5 -9s85.5 -15.333 137.5 -28l-47 -227c-35.333 9.33301 -66 16.5 -92 21.5s-53.333 7.5 -82 7.5
c-101.333 0 -152 -48.667 -152 -146v-84h307v-243h-307v-799h-301v799h-131z" />
    <glyph glyph-name="g" unicode="g" horiz-adv-x="1226" 
d="M80 520c0 87.333 13.665 165.835 40.998 235.502s64.5 128 111.5 175s102.333 83.167 166 108.5s131.5 38 203.5 38c44 0 88.5 -4.66699 133.5 -14s85.833 -23.666 122.5 -42.999l55 80l254 -96l-73 -205v-858c0 -79.333 -14.667 -145 -44 -197
s-68.666 -93.333 -117.999 -124s-105.666 -52.167 -168.999 -64.5s-128.666 -18.5 -195.999 -18.5c-75.333 0 -146.333 6.16699 -213 18.5s-128.667 29.5 -186 51.5l65 243c50.667 -16.667 102.667 -31.334 156 -44.001s108.666 -19 165.999 -19c24.667 0 51 2 79 6
s54 11.167 78 21.5s43.5 25 58.5 44s22.5 44.167 22.5 75.5v58c-28.667 -6.66699 -59.167 -12.834 -91.5 -18.501s-65.5 -8.5 -99.5 -8.5c-96.667 0 -178.167 14 -244.5 42s-120 67 -161 117s-70.667 108.667 -89 176s-27.5 140.666 -27.5 219.999zM386.998 520.002
c0 -106.667 20.833 -184.833 62.5 -234.5s100.167 -74.5 175.5 -74.5c30 0 59 2.33301 87 7s55.667 11.334 83 20.001v538c-22 13.333 -48.333 24.166 -79 32.499s-61 12.5 -91 12.5c-31.333 0 -61.333 -5.5 -90 -16.5s-54 -28.333 -76 -52s-39.5 -54.667 -52.5 -93
s-19.5 -84.833 -19.5 -139.5z" />
    <glyph glyph-name="h" unicode="h" horiz-adv-x="1220" 
d="M125 0v1477h299v-457c44 16.667 86.667 30.334 128 41.001s90 16 146 16c75.333 0 139.333 -10.5 192 -31.5s94.667 -50 126 -87s54.166 -79.667 68.499 -128s21.5 -99.833 21.5 -154.5v-676h-301v655c0 58.667 -15.667 101.334 -47 128.001s-69.666 40 -114.999 40
c-46.667 0 -88.667 -5.83301 -126 -17.5s-69 -23.5 -95 -35.5v-770h-297z" />
    <glyph glyph-name="i" unicode="i" horiz-adv-x="610" 
d="M45 799v243h440v-1042h-301v799h-139zM133 1329c0 48 15.333 89 46 123s76.667 51 138 51c58.667 0 103.5 -17 134.5 -51s46.5 -75 46.5 -123s-15.333 -88.667 -46 -122s-75.667 -50 -135 -50c-62.667 0 -109 16.333 -139 49c-30 34 -45 75 -45 123z" />
    <glyph glyph-name="j" unicode="j" horiz-adv-x="598" 
d="M-246 -395l69.999 229.002c27.333 -10.667 59 -21.167 95 -31.5s72 -15.5 108 -15.5c96.667 0 145 45.667 145 137v1118h301v-1142c0 -50.667 -7.5 -97.834 -22.5 -141.501s-38.833 -82 -71.5 -115s-75.667 -58.667 -129 -77s-117.666 -27.5 -192.999 -27.5
c-38 0 -85 5.16699 -141 15.5s-110 27.166 -162 50.499zM142.999 1329c0 48 15.5 89 46.5 123s77.167 51 138.5 51c58.667 0 103.334 -17 134.001 -51s46 -75 46 -123s-15.333 -88.667 -46 -122s-75.334 -50 -134.001 -50c-63.333 0 -110 16.333 -140 49
c-30 34 -45 75 -45 123z" />
    <glyph glyph-name="k" unicode="k" horiz-adv-x="1196" 
d="M125 0l-0.00195312 1479h301v-809h41c15.333 0 29.333 2.33301 42 7s24.667 14 36 28l334 389l227 -179l-328 -356l398 -412l-218 -188l-380 395c-19.333 19.333 -36.166 34.166 -50.499 44.499s-33.166 15.5 -56.499 15.5h-45v-414h-301z" />
    <glyph glyph-name="l" unicode="l" horiz-adv-x="571" 
d="M27 1233v244h419v-1477h-301v1233h-118z" />
    <glyph glyph-name="m" unicode="m" horiz-adv-x="1783" 
d="M59 983l252.001 116.997l62 -107c39.333 22 85 41.5 137 58.5s109.333 25.5 172 25.5c61.333 0 114.5 -7.83301 159.5 -23.5s81.833 -36.5 110.5 -62.5c45.333 20.667 97.666 40.167 156.999 58.5s119.666 27.5 180.999 27.5c75.333 0 137.166 -10.5 185.499 -31.5
s86.833 -50.333 115.5 -88s48.834 -81.667 60.501 -132s17.5 -104.166 17.5 -161.499v-664h-299v639c0 69.333 -10.833 117 -32.5 143s-56.5 39 -104.5 39c-30 0 -62.5 -4 -97.5 -12s-66.167 -19 -93.5 -33c5.33301 -19.333 8.83301 -40.166 10.5 -62.499
s2.5 -45.166 2.5 -68.499v-645h-301v639c0 68 -9.66699 115.333 -29 142s-55 40 -107 40c-34 0 -66.667 -5 -98 -15s-60.666 -22 -87.999 -36v-770h-299v788z" />
    <glyph glyph-name="n" unicode="n" horiz-adv-x="1226" 
d="M59 983l256 116.999l60 -107c48 23.333 97.167 43.166 147.5 59.499s110.166 24.5 179.499 24.5c76.667 0 141.334 -10.5 194.001 -31.5s95 -50.333 127 -88s54.833 -81.667 68.5 -132s20.5 -104.166 20.5 -161.499v-664h-301v641c0 66.667 -13 113.334 -39 140.001
s-66.333 40 -121 40c-42 0 -80.5 -5 -115.5 -15s-68.833 -22.667 -101.5 -38v-768h-301v788z" />
    <glyph glyph-name="o" unicode="o" horiz-adv-x="1232" 
d="M74 522c0 78 11.8291 150.832 35.4961 218.499s58.5 126.334 104.5 176.001s102.667 88.834 170 117.501s145.333 43 234 43c94 0 175.333 -14.333 244 -43s124.834 -67.834 168.501 -117.501s76 -108.334 97 -176.001s31.5 -140.5 31.5 -218.5
s-11.167 -150.667 -33.5 -218s-56.166 -126.333 -101.499 -177s-101.666 -90.334 -168.999 -119.001s-146.333 -43 -237 -43c-94 0 -174.667 14.333 -242 43s-123.666 68.334 -168.999 119.001s-78.833 109.834 -100.5 177.501s-32.5 140.167 -32.5 217.5zM382.996 521.999
c-0.666992 -207.333 77.666 -311 234.999 -311c154 0 231.333 103.667 232 311c0 206 -77.333 309 -232 309c-157.333 0 -235.666 -103 -234.999 -309z" />
    <glyph glyph-name="p" unicode="p" horiz-adv-x="1218" 
d="M59 989l242.003 111.001l70 -103c38 19.333 82.667 37.5 134 54.5s109.666 25.5 174.999 25.5c69.333 0 132.666 -11.833 189.999 -35.5s106.5 -58.834 147.5 -105.501s72.5 -104.5 94.5 -173.5s33 -148.5 33 -238.5c0 -80.667 -10.333 -155 -31 -223
s-52.5 -126.667 -95.5 -176s-97.833 -88 -164.5 -116s-147.334 -42 -242.001 -42c-26 0 -54.667 2.16699 -86 6.5s-62 9.83301 -92 16.5v-439h-297v1237zM434.003 240.001c23.333 -8 47.999 -14.5 73.999 -19.5s56 -7.5 90 -7.5c32.667 0 63.334 5.5 92.001 16.5
s53.667 28.667 75 53s38.166 56.333 50.499 96s18.5 88.167 18.5 145.5c0 106.667 -19.167 182.5 -57.5 227.5s-90.166 67.5 -155.499 67.5c-30 0 -59.833 -3.66699 -89.5 -11s-62.167 -20 -97.5 -38v-530z" />
    <glyph glyph-name="q" unicode="q" horiz-adv-x="1202" 
d="M74 516c0 88.667 14.666 167.832 43.999 237.499s69.5 128.334 120.5 176.001s111.333 84.167 181 109.5s144.834 38 225.501 38c69.333 0 138.166 -4.33301 206.499 -13s143.5 -25.334 225.5 -50.001v-1463h-301v439c-28.667 -6.66699 -60 -12.5 -94 -17.5
s-63.333 -7.5 -88 -7.5c-90 0 -167.833 13.333 -233.5 40s-119.667 63.834 -162 111.501s-73.666 105.667 -93.999 174s-30.5 143.5 -30.5 225.5zM382.999 521.998c0 -110.667 20.5 -189.833 61.5 -237.5s96.167 -71.5 165.5 -71.5c31.333 0 60 2 86 6s52.667 11 80 21v569
c-20.667 5.33301 -41.5 9 -62.5 11s-41.833 3 -62.5 3c-78 0 -142.167 -24.5 -192.5 -73.5s-75.5 -124.833 -75.5 -227.5z" />
    <glyph glyph-name="r" unicode="r" horiz-adv-x="880" 
d="M45 799l0.00292969 242.999h322l41 -96c53.333 40.667 103.166 70.334 149.499 89.001s94.5 28 144.5 28c23.333 0 48.666 -1 75.999 -3s54.666 -8 81.999 -18l-45 -241c-20.667 5.33301 -38.5 8.66602 -53.5 9.99902s-33.833 2 -56.5 2
c-52 0 -96.5 -9.16699 -133.5 -27.5s-65.833 -37.166 -86.5 -56.499v-729h-301v799h-139z" />
    <glyph glyph-name="s" unicode="s" horiz-adv-x="1017" 
d="M47 43l70.001 246.003c8 -4 24 -10.167 48 -18.5s52.333 -17 85 -26s68.167 -16.5 106.5 -22.5s75.833 -9 112.5 -9c53.333 0 95.333 8.5 126 25.5s46 39.167 46 66.5c0 18 -4.5 32 -13.5 42s-23 18.5 -42 25.5s-42.833 13.833 -71.5 20.5s-62.667 15 -102 25
c-32.667 8 -67.834 17.5 -105.501 28.5s-72.834 27.333 -105.501 49s-60 51 -82 88s-33 85.5 -33 145.5c0 48 8.83301 93.167 26.5 135.5s44.667 79.166 81 110.499s82.833 56.166 139.5 74.499s124 27.5 202 27.5c90 0 170.833 -9.16699 242.5 -27.5
s127.167 -37.166 166.5 -56.499l-84 -221c-53.333 19.333 -106.166 34.5 -158.499 45.5s-103.833 16.5 -154.5 16.5c-106.667 0 -160 -28 -160 -84c0 -19.333 5.5 -34.833 16.5 -46.5s25.333 -21.167 43 -28.5s38.5 -13.833 62.5 -19.5s49 -11.167 75 -16.5
c44 -9.33301 87.333 -19.833 130 -31.5s81.5 -28.834 116.5 -51.501s63 -52.667 84 -90s31.5 -86.333 31.5 -147c0 -106.667 -41 -192.334 -123 -257.001s-204.667 -97 -368 -97c-45.333 0 -89.833 3.16699 -133.5 9.5s-84 13.5 -121 21.5s-68.667 16.5 -95 25.5
s-45.833 16.167 -58.5 21.5z" />
    <glyph glyph-name="t" unicode="t" horiz-adv-x="884" 
d="M37 799l0.000976562 243.004h139v289h295v-289h311v-243h-311v-443c0 -56 13.667 -93.833 41 -113.5s60.666 -29.5 99.999 -29.5c26 0 54.333 2.33301 85 7s68 12.667 112 24l55 -224c-19.333 -6.66699 -41.5 -13.334 -66.5 -20.001s-51.5 -12.5 -79.5 -17.5
s-56.667 -9.16699 -86 -12.5s-57 -5 -83 -5c-56 0 -106.833 6.16699 -152.5 18.5s-85 32.166 -118 59.499s-58.333 63.166 -76 107.499s-26.5 99.166 -26.5 164.499v484h-139z" />
    <glyph glyph-name="u" unicode="u" horiz-adv-x="1230" 
d="M115 379l0.00195312 662.998h299v-645c0 -68 16 -114.667 48 -140s73.333 -38 124 -38c40.667 0 76.667 5.5 108 16.5s62.666 23.833 93.999 38.5v768h299v-804l95 -136l-217 -157l-107 108c-44 -23.333 -91.833 -43.833 -143.5 -61.5s-115.167 -26.5 -190.5 -26.5
s-138.833 10.667 -190.5 32s-93.834 50.333 -126.501 87s-56.167 80.334 -70.5 131.001s-21.5 105.334 -21.5 164.001z" />
    <glyph glyph-name="v" unicode="v" horiz-adv-x="1224" 
d="M31 997l286.001 74.001l240 -774c6.66699 -20.667 14.5 -34.334 23.5 -41.001s19.5 -10 31.5 -10c13.333 0 24.5 3.66699 33.5 11s17.167 21.333 24.5 42l233 772l291 -74l-254 -790c-24.667 -78 -62.5 -137.833 -113.5 -179.5s-123.833 -62.5 -218.5 -62.5
c-92.667 0 -164.334 21.167 -215.001 63.5s-88 101.833 -112 178.5z" />
    <glyph glyph-name="w" unicode="w" horiz-adv-x="1671" 
d="M82 1014l302.999 35.001l82 -744c1.33301 -20.667 6.5 -37 15.5 -49s19.5 -21.167 31.5 -27.5s24.833 -10.5 38.5 -12.5s26.834 -3 39.501 -3c18 0 35.833 2 53.5 6s33.167 10.333 46.5 19v804h291v-804c12 -8 27.333 -14.167 46 -18.5s36.667 -6.5 54 -6.5
c22 0 46.333 5.16699 73 15.5s42.667 33.833 48 70.5l84 750l301 -35l-90 -748c-5.33301 -40.667 -16.166 -79.5 -32.499 -116.5s-39.166 -69.167 -68.499 -96.5s-66.5 -48.833 -111.5 -64.5s-99.167 -23.5 -162.5 -23.5c-52 0 -102.833 6.16699 -152.5 18.5
s-94.834 30.166 -135.501 53.499c-39.333 -22 -84 -39.5 -134 -52.5s-101 -19.5 -153 -19.5c-125.333 0 -216.833 27.667 -274.5 83s-91.834 128 -102.501 218z" />
    <glyph glyph-name="x" unicode="x" horiz-adv-x="1220" 
d="M31 111l352.001 421l-307 388l229 165l270 -356c13.333 -20.667 27 -31 41 -31c8 0 14.5 2.16699 19.5 6.5s11.5 11.833 19.5 22.5l285 356l217 -163l-311 -381l344 -416l-225 -168l-312 383c-16.667 20.667 -30.334 31 -41.001 31c-6.66699 0 -12.667 -2.5 -18 -7.5
l-25 -23.5l-319 -383z" />
    <glyph glyph-name="y" unicode="y" horiz-adv-x="1202" 
d="M31 1006l292.998 64.999l174 -690c15.333 -57.333 31.333 -97.666 48 -120.999s43.667 -35 81 -35h32l220 846l292 -67l-303 -1178c-27.333 -102.667 -76.166 -176.167 -146.499 -220.5s-158.5 -66.5 -264.5 -66.5c-48 0 -101 4.83301 -159 14.5s-111 21.834 -159 36.501
l47 242c38 -10.667 77.333 -20.834 118 -30.501s82 -14.5 124 -14.5c34 0 64 7.16699 90 21.5s44.333 43.5 55 87.5l21 73c-113.333 0 -198.666 24 -255.999 72s-98.333 123 -123 225z" />
    <glyph glyph-name="z" unicode="z" horiz-adv-x="1091" 
d="M61 176c0 39.333 9.33301 73.833 28 103.5s45 61.5 79 95.5l416 422h-492v245h905v-208l-530 -539c-9.33301 -9.33301 -14 -18.333 -14 -27c0 -13.333 9.33301 -20 28 -20h539v-248h-723c-78 0 -136.833 16 -176.5 48s-59.5 74.667 -59.5 128z" />
    <glyph glyph-name="braceleft" unicode="{" horiz-adv-x="892" 
d="M72 489v239.999h172v479c0 90 19.333 157.333 58 202s110 67 214 67h336v-242h-250c-27.333 0 -46.5 -6.16699 -57.5 -18.5s-16.5 -32.166 -16.5 -59.499v-1134c0 -27.333 5.16699 -47.166 15.5 -59.499s29.833 -18.5 58.5 -18.5h250v-242h-336
c-104 0 -175.333 22.167 -214 66.5s-58 112.166 -58 203.499v516h-172z" />
    <glyph glyph-name="bar" unicode="|" horiz-adv-x="583" 
d="M145 -463v2083h291v-2083h-291z" />
    <glyph glyph-name="braceright" unicode="}" horiz-adv-x="892" 
d="M41 -55l250 0.000976562c28.667 0 48.167 6.16699 58.5 18.5s15.5 32.166 15.5 59.499v1134c0 27.333 -5.5 47.166 -16.5 59.499s-30.167 18.5 -57.5 18.5h-250v242h334c105.333 0 177.333 -22.667 216 -68s58 -112.333 58 -201v-479h172v-240h-172v-516
c0 -91.333 -19.5 -159.166 -58.5 -203.499s-110.833 -66.5 -215.5 -66.5h-334v242z" />
    <glyph glyph-name="asciitilde" unicode="~" horiz-adv-x="1298" 
d="M106 698c18 22 40.001 44.998 66.001 68.998s54.333 45.833 85 65.5s63.167 36 97.5 49s68.5 19.5 102.5 19.5c31.333 0 62.666 -4.5 93.999 -13.5s62.333 -18.5 93 -28.5s61.334 -19.5 92.001 -28.5s60.334 -13.5 89.001 -13.5c40.667 0 81.334 13.333 122.001 40
s76 53.667 106 81l155 -176c-23.333 -24.667 -48.833 -49.667 -76.5 -75s-57.334 -48.166 -89.001 -68.499s-64.834 -36.666 -99.501 -48.999s-70.334 -18.5 -107.001 -18.5c-35.333 0 -69.5 4.5 -102.5 13.5s-64.833 18.5 -95.5 28.5l-90 28.5
c-29.333 9 -57.666 13.5 -84.999 13.5c-35.333 0 -69.833 -12 -103.5 -36s-64.834 -49 -93.501 -75z" />
    <glyph glyph-name="uni00A0" unicode="&#xa0;" horiz-adv-x="0" 
 />
    <glyph glyph-name="exclamdown" unicode="&#xa1;" horiz-adv-x="579" 
d="M121 -436l45 1032h252l31 -1032h-328zM121 897c0 52 14 94.334 42 127.001s70.667 49 128 49c58.667 0 102 -16.333 130 -49s42 -75 42 -127c0 -50.667 -14 -92.334 -42 -125.001s-71.333 -49 -130 -49c-57.333 0 -100.333 16.333 -129 49c-27.333 34 -41 75.667 -41 125
z" />
    <glyph glyph-name="cent" unicode="&#xa2;" horiz-adv-x="1200" 
d="M150 653c0 66.667 8.83203 130.163 26.499 190.496s43.834 114.333 78.501 162s77.667 88 129 121s110.333 56.167 177 69.5v240h256v-230c58.667 -6.66699 113 -17.167 163 -31.5s94.667 -29.833 134 -46.5l-94 -231c-38 13.333 -71 24.5 -99 33.5
s-53.333 15.833 -76 20.5s-43.834 7.83398 -63.501 9.50098s-39.834 2.5 -60.501 2.5c-90 0 -156.167 -28.667 -198.5 -86s-63.5 -131.333 -63.5 -222c0 -95.333 21.5 -168.666 64.5 -219.999s105.5 -77 187.5 -77c40.667 0 85.334 4.83301 134.001 14.5
s109.667 30.167 183 61.5l90 -237c-46.667 -19.333 -95.167 -36.166 -145.5 -50.499s-102.166 -24.833 -155.499 -31.5v-240h-256v244c-74 12 -137.167 33.333 -189.5 64s-94.833 69.334 -127.5 116.001s-56.5 100 -71.5 160s-22.5 124.667 -22.5 194z" />
    <glyph glyph-name="sterling" unicode="&#xa3;" horiz-adv-x="1282" 
d="M84 584v253.999h240l71 254c16.667 61.333 37.667 115.833 63 163.5s57 87.834 95 120.501s83.333 57.667 136 75s115.334 26 188.001 26c69.333 0 137.5 -10 204.5 -30s131.833 -45.667 194.5 -77l-109 -227c-42 20.667 -86.167 39.167 -132.5 55.5
s-91.5 24.5 -135.5 24.5c-54.667 0 -98 -10 -130 -30s-56.333 -58.667 -73 -116l-67 -239h387v-254h-455l-69 -244c-6.66699 -24.667 -10.334 -41 -11.001 -49c0 -26 20 -39 60 -39h614v-252h-788c-42 0 -76.833 4.5 -104.5 13.5s-49.667 21.333 -66 37s-27.833 34 -34.5 55
s-10 43.833 -10 68.5s3 50 9 76s12.333 51.333 19 76l76 258h-172z" />
    <glyph glyph-name="currency" unicode="&#xa4;" horiz-adv-x="1472" 
d="M41 1233l199.001 180l270 -274c68 39.333 144.333 59 229 59c79.333 0 154.666 -19 225.999 -57l268 272l199 -180l-277 -279c18 -32.667 32.833 -68.5 44.5 -107.5s17.5 -80.167 17.5 -123.5c0 -48 -5.5 -90.667 -16.5 -128s-28.167 -74 -51.5 -110l144.5 -145.5
l138.5 -140.5l-193 -174l-278 280c-68 -35.333 -142 -53 -222 -53c-39.333 0 -78.5 4.5 -117.5 13.5s-74.167 22.833 -105.5 41.5l-143.5 -143.5l-139.5 -138.5l-190 176l283 286c-44 68 -66 146.667 -66 236c0 42 5.5 82.5 16.5 121.5s25.167 74.167 42.5 105.5z
M522.001 723c0 -44 12.332 -83.999 36.999 -119.999s56 -62.333 94 -79c28.667 -10.667 57.334 -16 86.001 -16c30 0 58 5.5 84 16.5s48.667 26.333 68 46s34.666 42.5 45.999 68.5s17 54 17 84s-5.66699 58.333 -17 85s-26.666 49.5 -45.999 68.5s-42 34.333 -68 46
s-54 17.5 -84 17.5c-31.333 0 -60 -5.5 -86 -16.5s-48.833 -26.333 -68.5 -46s-35 -42.834 -46 -69.501s-16.5 -55 -16.5 -85z" />
    <glyph glyph-name="yen" unicode="&#xa5;" horiz-adv-x="1390" 
d="M29 1384l273.999 114.997l291 -627c15.333 -31.333 29.333 -51.666 42 -60.999s28 -14 46 -14c20.667 0 37.167 5 49.5 15s25.833 30.667 40.5 62l289 625l274 -110l-245 -515c-9.33301 -19.333 -18.166 -35.666 -26.499 -48.999s-17.5 -24.666 -27.5 -33.999h111v-234
h-318v-100h318v-234h-318v-223h-309v223h-305v234h305v100h-305v234h104c-9.33301 10.667 -18.833 23.5 -28.5 38.5s-18.5 31.5 -26.5 49.5z" />
    <glyph glyph-name="brokenbar" unicode="&#xa6;" horiz-adv-x="583" 
d="M145 401h291v-864h-291v864zM145 877v743h291v-743h-291z" />
    <glyph glyph-name="section" unicode="&#xa7;" horiz-adv-x="1222" 
d="M96 582c0 54.667 15.335 106.168 46.002 154.501s70 91.5 118 129.5c-27.333 26 -50.166 57.167 -68.499 93.5s-27.5 80.5 -27.5 132.5c0 62.667 12 117.834 36 165.501s57.5 87.834 100.5 120.501s93.5 57.334 151.5 74.001s121 25 189 25
c42 0 83.833 -2.83301 125.5 -8.5s80.667 -12.5 117 -20.5s69.166 -17.167 98.499 -27.5s54.333 -20.166 75 -29.499l-92 -226c-54.667 19.333 -107.334 35.5 -158.001 48.5s-106.667 19.5 -168 19.5c-23.333 0 -45.5 -2 -66.5 -6s-40.167 -10.833 -57.5 -20.5
s-31 -22.334 -41 -38.001s-15 -34.5 -15 -56.5c0 -40.667 16.333 -71 49 -91s74 -35.833 124 -47.5s103.667 -22.834 161 -33.501s110.833 -27.334 160.5 -50.001s90.834 -54.834 123.501 -96.501s49 -98.5 49 -170.5c0 -52 -11.5 -101.667 -34.5 -149
s-59.833 -93.333 -110.5 -138c23.333 -27.333 42.833 -59.166 58.5 -95.499s23.5 -79.5 23.5 -129.5c0 -62.667 -13.333 -118 -40 -166s-62.834 -88 -108.501 -120s-98.834 -56.167 -159.501 -72.5s-125.334 -24.5 -194.001 -24.5c-44 0 -87.667 3 -131 9
s-84.166 13.5 -122.499 22.5s-72.833 18.5 -103.5 28.5s-55.667 20 -75 30l92 227c53.333 -20.667 108 -38.167 164 -52.5s115.333 -21.5 178 -21.5c23.333 0 47 2.16699 71 6.5s45.833 11.166 65.5 20.499s35.667 21.5 48 36.5s18.5 34.167 18.5 57.5
c0 40.667 -16.333 71 -49 91s-74 35.833 -124 47.5s-104 22.667 -162 33s-111.833 26.666 -161.5 48.999s-91 54.333 -124 96s-49.5 99.5 -49.5 173.5zM397.002 621.001c0 -49.333 36.334 -83.665 109.001 -102.998c57.333 -15.333 107.166 -27 149.499 -35
s75.166 -14.667 98.499 -20c19.333 15.333 35.666 33.166 48.999 53.499s20 43.5 20 69.5c0 23.333 -7.83301 43.5 -23.5 60.5s-45.834 30.833 -90.501 41.5l-72 16.5l-72 16.5c-23.333 5.33301 -44.166 10.333 -62.499 15s-32.166 8.66699 -41.499 12
c-15.333 -12.667 -29.666 -31.334 -42.999 -56.001c-13.333 -23.333 -20.333 -47 -21 -71z" />
    <glyph glyph-name="dieresis" unicode="&#xa8;" 
d="M111 1376c0 46.667 14 86.334 42 119.001s69 49 123 49c52 0 92 -16.333 120 -49s42 -72.334 42 -119.001s-14 -86 -42 -118s-68 -48 -120 -48c-54 0 -95.333 15.667 -124 47c-27.333 34 -41 73.667 -41 119zM569 1376c0 46.667 13 86.334 39 119.001s67.667 49 125 49
c53.333 0 93.666 -16.333 120.999 -49s41 -72.334 41 -119.001s-13.667 -86 -41 -118s-67.666 -48 -120.999 -48c-56 0 -97.667 15.667 -125 47c-26 31.333 -39 71 -39 119z" />
    <glyph glyph-name="copyright" unicode="&#xa9;" horiz-adv-x="1726" 
d="M123 737c0 102.667 17.668 198.666 53.001 287.999s85.5 167.166 150.5 233.499s143.167 119 234.5 158s193 58.5 305 58.5s213.833 -19.5 305.5 -58.5s169.167 -91.667 232.5 -158s112.5 -144.166 147.5 -233.499s52.5 -185.333 52.5 -288s-17.833 -198.667 -53.5 -288
s-85.834 -167 -150.501 -233s-142.834 -118.5 -234.501 -157.5s-193.5 -58.5 -305.5 -58.5c-116 0 -219.167 19.5 -309.5 58.5s-168.166 91.167 -233.499 156.5c-62.667 66.667 -110.667 144.834 -144 234.501s-50 185.5 -50 287.5zM303.001 736.999
c0 -120 28.667 -226 86 -318s138 -160.667 242 -206c68 -30 146.333 -45 235 -45c87.333 0 165.833 15 235.5 45s128.834 70.667 177.501 122s85.5 111.333 110.5 180s37.5 142.667 37.5 222c0 78 -12.5 151.5 -37.5 220.5s-61.833 129 -110.5 180
s-107.834 91.667 -177.501 122s-148.167 45.5 -235.5 45.5s-165.833 -15.167 -235.5 -45.5s-128.667 -71 -177 -122s-85.5 -111 -111.5 -180s-39 -142.5 -39 -220.5zM467.001 736.999c0 60 8.83301 115.665 26.5 166.998s44 95.833 79 133.5s78 67 129 88
s110.833 31.5 179.5 31.5c61.333 0 117.5 -6.83301 168.5 -20.5s94.5 -30.167 130.5 -49.5l-74 -198c-50.667 19.333 -91.334 32.333 -122.001 39s-63.667 10 -99 10c-57.333 0 -99 -18.167 -125 -54.5s-39 -85.166 -39 -146.499c0 -130 54 -194.667 162 -194
c34 0 68.333 4 103 12s75.334 22.333 122.001 43l68 -201c-48 -19.333 -95.833 -35.333 -143.5 -48s-100.5 -19 -158.5 -19c-75.333 0 -138.833 9.83301 -190.5 29.5s-93.5 47.334 -125.5 83.001s-55.167 78.667 -69.5 129s-21.5 105.5 -21.5 165.5z" />
    <glyph glyph-name="ordfeminine" unicode="&#xaa;" horiz-adv-x="1028" 
d="M137 803c0 46.667 8.50195 85.002 25.502 115.002s39.833 54.167 68.5 72.5s61.167 31.166 97.5 38.499s74.166 11 113.499 11h150v25c0 36.667 -8.83301 62.5 -26.5 77.5s-43.167 22.5 -76.5 22.5c-31.333 0 -64.666 -3 -99.999 -9s-78.333 -17.333 -129 -34l-57 164
c40.667 15.333 89 28.666 145 39.999s112.667 17 170 17c62.667 0 113.5 -7.16699 152.5 -21.5s69.167 -34.333 90.5 -60s35.666 -57 42.999 -94s11 -78.167 11 -123.5v-272l76 -104l-162 -111l-67 78c-23.333 -15.333 -55.5 -30.833 -96.5 -46.5
s-86.833 -23.5 -137.5 -23.5c-40.667 0 -78.834 4.5 -114.501 13.5s-66.5 23.333 -92.5 43s-46.5 44.5 -61.5 74.5s-22.5 65.667 -22.5 107zM369.002 817.002c0 -56 32.668 -84.001 98.001 -84.001c49.333 0 91.666 13 126.999 39v123h-133
c-30 0 -52.833 -7.16699 -68.5 -21.5s-23.5 -33.166 -23.5 -56.499z" />
    <glyph glyph-name="guillemotleft" unicode="&#xab;" horiz-adv-x="1435" 
d="M115 551c0 52 15.6689 95.334 47.002 130.001s71.666 70.334 120.999 107.001l309 230l141 -199l-303 -217c-16.667 -10.667 -24.667 -22.334 -24 -35.001c0 -12 6 -22 18 -30l317 -230l-141 -201l-332 226c-50.667 34 -88.834 66.667 -114.501 98
s-38.5 71.666 -38.5 120.999zM713.002 551.001c0 52 15.6689 95.334 47.002 130.001s71.666 70.334 120.999 107.001l309 230l141 -199l-303 -217c-16.667 -10.667 -24.667 -22.334 -24 -35.001c0 -12 6 -22 18 -30l317 -230l-141 -201l-332 226
c-50.667 34 -88.834 66.667 -114.501 98s-38.5 71.666 -38.5 120.999z" />
    <glyph glyph-name="logicalnot" unicode="&#xac;" horiz-adv-x="1425" 
d="M236 573v242h952v-487h-236v245h-716z" />
    <glyph glyph-name="uni00AD" unicode="&#xad;" horiz-adv-x="962" 
d="M145 502v260h676v-260h-676z" />
    <glyph glyph-name="registered" unicode="&#xae;" horiz-adv-x="1267" 
d="M109 954c0 70.667 12.168 137.834 36.501 201.501s59 119.5 104 167.5s100 85.667 165 113s137.833 41 218.5 41c83.333 0 157.333 -13.333 222 -40s119.5 -63.667 164.5 -111s79.167 -102.333 102.5 -165s35 -129.334 35 -200.001c0 -72.667 -13 -140 -39 -202
s-62.167 -116.333 -108.5 -163s-101.5 -83.334 -165.5 -110.001s-134.333 -40 -211 -40c-118.667 0 -219.834 28.5 -303.501 85.5s-145.167 131.167 -184.5 222.5c-24.667 62.667 -36.667 129.334 -36 200.001zM248.001 954c0 -79.333 18.667 -149.999 56 -211.999
s92.333 -108.667 165 -140c49.333 -19.333 104 -29 164 -29c65.333 0 122.333 10.333 171 31s89 48.667 121 84s55.833 76.666 71.5 123.999s23.5 97 23.5 149c0 53.333 -7.83301 103.5 -23.5 150.5s-39.5 88.167 -71.5 123.5s-72.333 63.333 -121 84s-105.667 31 -171 31
s-122.333 -10.667 -171 -32s-88.667 -50 -120 -86s-54.833 -78 -70.5 -126s-23.5 -98.667 -23.5 -152zM440.001 711.001v517.999h215c52 0 96.167 -11.333 132.5 -34s54.5 -61.334 54.5 -116.001c0 -35.333 -9.66699 -64.666 -29 -87.999s-42 -41 -68 -53
c5.33301 -1.33301 10.333 -5.33301 15 -12l16 -15l113 -135l-111 -84l-139 168c-9.33301 10.667 -17.833 17.834 -25.5 21.501s-17.5 5.5 -29.5 5.5v-176h-144zM584.001 1006h53c38 0 57 17.667 57 53c0 22 -5 36 -15 42s-24 9 -42 9h-53v-104z" />
    <glyph glyph-name="macron" unicode="&#xaf;" 
d="M190 1239v219h641v-219h-641z" />
    <glyph glyph-name="degree" unicode="&#xb0;" horiz-adv-x="733" 
d="M94 1214c0 38 6.50195 73.5029 19.502 106.503s31.5 61.833 55.5 86.5s52.667 44.167 86 58.5s70.666 21.5 111.999 21.5c40.667 0 77.667 -7.16699 111 -21.5s62 -33.833 86 -58.5s42.5 -53.334 55.5 -86.001s19.5 -68.334 19.5 -107.001c0 -38 -6.5 -73.333 -19.5 -106
s-31.5 -61.334 -55.5 -86.001s-52.667 -44.167 -86 -58.5s-70.333 -21.5 -111 -21.5c-42 0 -79.833 7.16699 -113.5 21.5s-62.834 33.833 -87.501 58.5c-48 50.667 -72 114.667 -72 192zM254.002 1214c0 -31.333 10.667 -58.833 32 -82.5s48.333 -35.5 81 -35.5
s59.5 11.833 80.5 35.5s31.5 51.167 31.5 82.5s-10.833 59 -32.5 83s-48.167 36 -79.5 36s-58 -11.833 -80 -35.5s-33 -51.5 -33 -83.5z" />
    <glyph glyph-name="plusminus" unicode="&#xb1;" horiz-adv-x="1372" 
d="M203 586v243h352v349h250v-349h350v-243h-350v-344h364v-242h-952v242h338v344h-352z" />
    <glyph glyph-name="uni00B2" unicode="&#xb2;" horiz-adv-x="921" 
d="M121 719c0 46.667 24.667 90.333 74 131l280 227c27.333 20.667 49.5 41.5 66.5 62.5s25.5 45.167 25.5 72.5s-10.833 48.166 -32.5 62.499s-46.167 21.5 -73.5 21.5c-31.333 0 -66.5 -7.5 -105.5 -22.5s-78.833 -33.167 -119.5 -54.5l-89 153
c42 24.667 93.167 48.334 153.5 71.001s124.166 34 191.499 34c91.333 0 162.5 -22.333 213.5 -67s76.5 -103.667 76.5 -177c0 -65.333 -16 -121 -48 -167s-76.667 -90.667 -134 -134l-188 -144c-5.33301 -4 -8.33301 -8 -9 -12c0 -6.66699 5 -10 15 -10h383v-182h-533
c-45.333 0 -81.166 11.5 -107.499 34.5s-39.5 56.5 -39.5 100.5z" />
    <glyph glyph-name="uni00B3" unicode="&#xb3;" horiz-adv-x="921" 
d="M123 633l56.998 174.003c52 -20.667 97.5 -35.334 136.5 -44.001s77.5 -13 115.5 -13s71.833 8.16699 101.5 24.5s44.5 44.166 44.5 83.499c0 31.333 -8.66699 53.833 -26 67.5s-39 23.167 -65 28.5c-10.667 2.66699 -25.167 4.5 -43.5 5.5s-33.166 1.5 -44.499 1.5h-82
v124l179 164c5.33301 5.33301 8 10.333 8 15c0 6.66699 -5 10 -15 10h-311v186h440c57.333 0 96.666 -10.5 117.999 -31.5s32 -48.5 32 -82.5c0 -26 -6.83301 -49.333 -20.5 -70s-32.167 -41.334 -55.5 -62.001l-125 -114c42 -5.33301 78.167 -16.333 108.5 -33
s54.333 -36.167 72 -58.5s30.667 -46.833 39 -73.5s12.5 -53 12.5 -79c0 -40.667 -8.16699 -78.5 -24.5 -113.5s-40 -65.833 -71 -92.5s-69 -47.5 -114 -62.5s-96.833 -22.5 -155.5 -22.5c-65.333 0 -125.666 7.16699 -180.999 21.5s-98.666 29.833 -129.999 46.5z" />
    <glyph glyph-name="acute" unicode="&#xb4;" 
d="M330 1282l268 412l231 -162l-325 -373z" />
    <glyph glyph-name="uni00B5" unicode="&#xb5;" horiz-adv-x="1243" 
d="M139 -446l0.00292969 1484h299v-643c0 -68 15.333 -114.333 46 -139s70.667 -37 120 -37c40.667 0 77.167 5.5 109.5 16.5s64.166 23.833 95.499 38.5v764h299v-800l94 -136l-217 -157l-106 108c-39.333 -26 -80 -47.167 -122 -63.5s-88.333 -24.5 -139 -24.5
c-46.667 0 -87.334 6.83301 -122.001 20.5s-57.334 26.167 -68.001 37.5v-469h-289z" />
    <glyph glyph-name="paragraph" unicode="&#xb6;" horiz-adv-x="1222" 
d="M66 985c0 95.333 17.3301 174.499 51.9971 237.499s78.334 113.333 131.001 151s110 64.334 172 80.001s119.667 23.5 173 23.5h573v-242h-145v-1126c0 -326 -166.667 -489.333 -500 -490c-75.333 0 -139.5 6.16699 -192.5 18.5s-97.833 26.833 -134.5 43.5l71 251
c31.333 -15.333 70 -27.333 116 -36s90.667 -13 134 -13c31.333 0 59.333 3.5 84 10.5s45.834 19.333 63.501 37s31 41.5 40 71.5s13.5 68.333 13.5 115v1118h-109v-719h-35c-165.333 0 -291.166 38.167 -377.499 114.5s-129.5 194.5 -129.5 354.5z" />
    <glyph glyph-name="periodcentered" unicode="&#xb7;" horiz-adv-x="737" 
d="M198 733c0 50.667 13.667 92.334 41 125.001s70.333 49 129 49s101.667 -16.333 129 -49s41 -74.334 41 -125.001c0 -52 -13.667 -94.333 -41 -127s-70.333 -49 -129 -49c-60 0 -103 16.333 -129 49c-27.333 34 -41 76.333 -41 127z" />
    <glyph glyph-name="cedilla" unicode="&#xb8;" 
d="M207 -449l76.001 160.002c4 -2.66699 12.167 -6.66699 24.5 -12s27.333 -10.833 45 -16.5s36.334 -10.5 56.001 -14.5s38.5 -6 56.5 -6c49.333 0 74 18.333 74 55c0 18 -6.16699 32.167 -18.5 42.5s-27.833 18.166 -46.5 23.499s-39.167 8.66602 -61.5 9.99902
s-44.5 2 -66.5 2l60 225h192l-27 -116c61.333 -8 110.166 -27.5 146.499 -58.5s54.5 -75.167 54.5 -132.5c0 -74 -23.833 -132.333 -71.5 -175s-118.834 -64 -213.501 -64c-44 0 -92.833 6.5 -146.5 19.5s-98.167 32.167 -133.5 57.5z" />
    <glyph glyph-name="uni00B9" unicode="&#xb9;" horiz-adv-x="921" 
d="M123 1272l227.001 159.999c23.333 16.667 46.666 28.334 69.999 35.001s46.333 10 69 10c35.333 0 65 -10 89 -30s36 -53 36 -99v-584h185v-180h-596v180h196v438c0 13.333 -4 20.333 -12 21c-6.66699 0 -12.667 -3 -18 -9l-127 -88z" />
    <glyph glyph-name="ordmasculine" unicode="&#xba;" horiz-adv-x="1044" 
d="M131 952c0 54.667 8.83398 106 26.501 154s44 89.667 79 125s77 62.833 126 82.5s105.5 29.5 169.5 29.5c62.667 0 117.667 -9.5 165 -28.5s87 -45.5 119 -79.5s56.167 -74.667 72.5 -122s24.5 -98 24.5 -152c0 -56 -7.5 -108 -22.5 -156s-38.5 -89.667 -70.5 -125
s-72.833 -63 -122.5 -83s-108.834 -30 -177.501 -30c-69.333 0 -128.333 10 -177 30s-88.667 47 -120 81s-54.5 74.5 -69.5 121.5s-22.5 97.833 -22.5 152.5zM375.001 952c0 -130.667 49 -196.001 147 -196.001c48 0 84.667 15.333 110 46s38 80.667 38 150
c0 66.667 -12.667 116.834 -38 150.501s-61.333 50.5 -108 50.5c-100 0 -149.667 -67 -149 -201z" />
    <glyph glyph-name="guillemotright" unicode="&#xbb;" horiz-adv-x="1435" 
d="M96 817l141.999 201.001l331 -225c50.667 -34 89 -66.833 115 -98.5s39 -72.167 39 -121.5c0 -52 -15.667 -95.333 -47 -130s-71.666 -70.334 -120.999 -107.001l-309 -230l-142 199l306 223c16.667 9.33301 24.667 21 24 35c0 12 -6 22.333 -18 31zM693.999 817.001
l141.999 201.001l331 -225c50.667 -34 89 -66.833 115 -98.5s39 -72.167 39 -121.5c0 -52 -15.667 -95.333 -47 -130s-71.666 -70.334 -120.999 -107.001l-309 -230l-142 199l306 223c16.667 9.33301 24.667 21 24 35c0 12 -6 22.333 -18 31z" />
    <glyph glyph-name="onequarter" unicode="&#xbc;" horiz-adv-x="2086" 
d="M105 1272l227.001 159.999c23.333 16.667 46.666 28.334 69.999 35.001s46.333 10 69 10c35.333 0 65 -10 89 -30s36 -53 36 -99v-584h185v-180h-596v180h196v438c0 13.333 -4 20.333 -12 21c-6.66699 0 -12.667 -3 -18 -9l-127 -88zM543.001 -0.000976562l891 1458h262
l-889 -1458h-264zM1237 339.999c0 45.333 23.333 93 70 143l372 395h179v-516h129v-170h-129v-190h-213v190h-238c-57.333 0 -100 13.667 -128 41s-42 63 -42 107zM1421 373.999c0 -8 5.66797 -12 17.001 -12h207v248l-213 -217c-6.66699 -6.66699 -10.334 -13 -11.001 -19z
" />
    <glyph glyph-name="onehalf" unicode="&#xbd;" horiz-adv-x="2086" 
d="M86 1272l227.001 159.999c23.333 16.667 46.666 28.334 69.999 35.001s46.333 10 69 10c35.333 0 65 -10 89 -30s36 -53 36 -99v-584h185v-180h-596v180h196v438c0 13.333 -4 20.333 -12 21c-6.66699 0 -12.667 -3 -18 -9l-127 -88zM510.001 -0.000976562l891 1458h262
l-889 -1458h-264zM1323 136.999c0 46.667 24.667 90.333 74 131l280 227c27.333 20.667 49.5 41.5 66.5 62.5s25.5 45.167 25.5 72.5s-10.833 48.166 -32.5 62.499s-46.167 21.5 -73.5 21.5c-31.333 0 -66.5 -7.5 -105.5 -22.5s-78.833 -33.167 -119.5 -54.5l-89 153
c42 24.667 93.167 48.334 153.5 71.001s124.166 34 191.499 34c91.333 0 162.5 -22.333 213.5 -67s76.5 -103.667 76.5 -177c0 -65.333 -16 -121 -48 -167s-76.667 -90.667 -134 -134l-188 -144c-5.33301 -4 -8.33301 -8 -9 -12c0 -6.66699 5 -10 15 -10h383v-182h-533
c-45.333 0 -81.166 11.5 -107.499 34.5s-39.5 56.5 -39.5 100.5z" />
    <glyph glyph-name="threequarters" unicode="&#xbe;" horiz-adv-x="2086" 
d="M121 633l56.998 174.003c52 -20.667 97.5 -35.334 136.5 -44.001s77.5 -13 115.5 -13s71.833 8.16699 101.5 24.5s44.5 44.166 44.5 83.499c0 31.333 -8.66699 53.833 -26 67.5s-39 23.167 -65 28.5c-10.667 2.66699 -25.167 4.5 -43.5 5.5s-33.166 1.5 -44.499 1.5h-82
v124l179 164c5.33301 5.33301 8 10.333 8 15c0 6.66699 -5 10 -15 10h-311v186h440c57.333 0 96.666 -10.5 117.999 -31.5s32 -48.5 32 -82.5c0 -26 -6.83301 -49.333 -20.5 -70s-32.167 -41.334 -55.5 -62.001l-125 -114c42 -5.33301 78.167 -16.333 108.5 -33
s54.333 -36.167 72 -58.5s30.667 -46.833 39 -73.5s12.5 -53 12.5 -79c0 -40.667 -8.16699 -78.5 -24.5 -113.5s-40 -65.833 -71 -92.5s-69 -47.5 -114 -62.5s-96.833 -22.5 -155.5 -22.5c-65.333 0 -125.666 7.16699 -180.999 21.5s-98.666 29.833 -129.999 46.5z
M501.998 0.00292969l891 1458h262l-889 -1458h-264zM1216 340.003c0 45.333 23.333 93 70 143l372 395h179v-516h129v-170h-129v-190h-213v190h-238c-57.333 0 -100 13.667 -128 41s-42 63 -42 107zM1400 374.003c0 -8 5.66797 -12 17.001 -12h207v248l-213 -217
c-6.66699 -6.66699 -10.334 -13 -11.001 -19z" />
    <glyph glyph-name="questiondown" unicode="&#xbf;" horiz-adv-x="1200" 
d="M104 -82c0 44 5.83203 83.666 17.499 118.999s28.167 68 49.5 98s46.333 57.667 75 83s59.334 50.333 92.001 75l102 74c19.333 13.333 35.833 25.833 49.5 37.5s25 23.334 34 35.001s15.5 24.334 19.5 38.001s6 30.5 6 50.5v68h291v-102
c0 -57.333 -8.16699 -106.833 -24.5 -148.5s-53.166 -83.167 -110.499 -124.5l-127 -92c-44 -31.333 -79.667 -61 -107 -89s-41 -59.667 -41 -95c0 -48 22.167 -83.667 66.5 -107s101.5 -35 171.5 -35c65.333 0 127 12.333 185 37s121 57.667 189 99l132 -224
c-66.667 -46.667 -144.5 -87.334 -233.5 -122.001s-190.833 -52 -305.5 -52c-84.667 0 -159.834 9.66699 -225.501 29s-121 46 -166 80s-79.5 73.833 -103.5 119.5s-36 95.167 -36 148.5zM521.999 896.999c0 52 14 94.334 42 127.001s70.667 49 128 49
c58.667 0 102 -16.333 130 -49s42 -75 42 -127c0 -50.667 -14 -92.334 -42 -125.001s-71.333 -49 -130 -49c-57.333 0 -100.333 16.333 -129 49c-27.333 34 -41 75.667 -41 125z" />
    <glyph glyph-name="Agrave" unicode="&#xc0;" horiz-adv-x="1480" 
d="M15 37l356.004 1175c13.333 46.667 30 88.167 50 124.5s44.667 66.666 74 90.999s65.166 43 107.499 56s92.166 19.5 149.499 19.5c56 0 103.833 -6.16699 143.5 -18.5s73.167 -30.333 100.5 -54s50.166 -52.667 68.499 -87s34.166 -73.166 47.499 -116.499l359 -1190
l-307 -68l-134 451h-581l-135 -451zM442.004 1872l193 182l332 -356l-154 -135zM520.004 680h435l-140 494c-8 27.333 -18.167 45.333 -30.5 54s-26.5 13 -42.5 13c-18 0 -32.833 -4.83301 -44.5 -14.5s-21.5 -27.167 -29.5 -52.5z" />
    <glyph glyph-name="Aacute" unicode="&#xc1;" horiz-adv-x="1480" 
d="M15 37l356.004 1175c13.333 46.667 30 88.167 50 124.5s44.667 66.666 74 90.999s65.166 43 107.499 56s92.166 19.5 149.499 19.5c56 0 103.833 -6.16699 143.5 -18.5s73.167 -30.333 100.5 -54s50.166 -52.667 68.499 -87s34.166 -73.166 47.499 -116.499l359 -1190
l-307 -68l-134 451h-581l-135 -451zM520.004 680h435l-140 494c-8 27.333 -18.167 45.333 -30.5 54s-26.5 13 -42.5 13c-18 0 -32.833 -4.83301 -44.5 -14.5s-21.5 -27.167 -29.5 -52.5zM528.004 1698l334 356l193 -182l-371 -309z" />
    <glyph glyph-name="Acircumflex" unicode="&#xc2;" horiz-adv-x="1480" 
d="M15 37l356.004 1175c13.333 46.667 30 88.167 50 124.5s44.667 66.666 74 90.999s65.166 43 107.499 56s92.166 19.5 149.499 19.5c56 0 103.833 -6.16699 143.5 -18.5s73.167 -30.333 100.5 -54s50.166 -52.667 68.499 -87s34.166 -73.166 47.499 -116.499l359 -1190
l-307 -68l-134 451h-581l-135 -451zM399.004 1683l248 263h207l235 -260l-155 -121l-189 174l-186 -174zM520.004 680h435l-140 494c-8 27.333 -18.167 45.333 -30.5 54s-26.5 13 -42.5 13c-18 0 -32.833 -4.83301 -44.5 -14.5s-21.5 -27.167 -29.5 -52.5z" />
    <glyph glyph-name="Atilde" unicode="&#xc3;" horiz-adv-x="1480" 
d="M15 37l356.004 1175c13.333 46.667 30 88.167 50 124.5s44.667 66.666 74 90.999s65.166 43 107.499 56s92.166 19.5 149.499 19.5c56 0 103.833 -6.16699 143.5 -18.5s73.167 -30.333 100.5 -54s50.166 -52.667 68.499 -87s34.166 -73.166 47.499 -116.499l359 -1190
l-307 -68l-134 451h-581l-135 -451zM342.004 1599c0 94 12.834 167 38.501 219s69.5 82.333 131.5 91c5.33301 1.33301 13.333 2 24 2h25c32.667 -2.66699 66 -10.5 100 -23.5l100 -36.5l52 -18l52 -17.5c15.333 -5 28.666 -7.5 39.999 -7.5c28.667 0 46 10 52 30s9 45 9 75
h183c0 -102.667 -16.5 -180.667 -49.5 -234s-80.833 -80 -143.5 -80c-35.333 0 -72.833 6.83301 -112.5 20.5l-110.5 39.5l-55 20l-56.5 18.5c-17 5.66699 -31.167 8.5 -42.5 8.5c-27.333 0 -44 -9.5 -50 -28.5s-9 -45.167 -9 -78.5h-178zM520.005 680h435l-140 494
c-8 27.333 -18.167 45.333 -30.5 54s-26.5 13 -42.5 13c-18 0 -32.833 -4.83301 -44.5 -14.5s-21.5 -27.167 -29.5 -52.5z" />
    <glyph glyph-name="Adieresis" unicode="&#xc4;" horiz-adv-x="1480" 
d="M15 37l356.004 1175c13.333 46.667 30 88.167 50 124.5s44.667 66.666 74 90.999s65.166 43 107.499 56s92.166 19.5 149.499 19.5c56 0 103.833 -6.16699 143.5 -18.5s73.167 -30.333 100.5 -54s50.166 -52.667 68.499 -87s34.166 -73.166 47.499 -116.499l359 -1190
l-307 -68l-134 451h-581l-135 -451zM353.004 1755c0 46.667 14 86.335 42 119.002s69 49 123 49c52 0 92.333 -16.333 121 -49s43 -72.334 43 -119.001s-14.333 -86.334 -43 -119.001s-69 -49 -121 -49c-54 0 -95.333 16.333 -124 49c-27.333 34 -41 73.667 -41 119z
M520.004 680.001h435l-140 494c-8 27.333 -18.167 45.333 -30.5 54s-26.5 13 -42.5 13c-18 0 -32.833 -4.83301 -44.5 -14.5s-21.5 -27.167 -29.5 -52.5zM813.004 1755c0 46.667 13.332 86.335 39.999 119.002s67.334 49 122.001 49c53.333 0 93.666 -16.333 120.999 -49
s41 -72.334 41 -119.001s-13.667 -86.334 -41 -119.001s-67.666 -49 -120.999 -49c-56 0 -97 16.333 -123 49c-26 31.333 -39 71 -39 119z" />
    <glyph glyph-name="Aring" unicode="&#xc5;" horiz-adv-x="1480" 
d="M15 37l356.004 1175c13.333 46.667 30 88.167 50 124.5s44.667 66.666 74 90.999s65.166 43 107.499 56s92.166 19.5 149.499 19.5c56 0 103.833 -6.16699 143.5 -18.5s73.167 -30.333 100.5 -54s50.166 -52.667 68.499 -87s34.166 -73.166 47.499 -116.499l359 -1190
l-307 -68l-134 451h-581l-135 -451zM463.004 1853c0 39.333 7.49902 76.499 22.499 111.499s35.5 65.5 61.5 91.5s56.5 46.5 91.5 61.5s72.167 22.5 111.5 22.5s76.5 -7.5 111.5 -22.5s65.5 -35.5 91.5 -61.5s46.5 -56.333 61.5 -91s22.5 -72 22.5 -112
c0 -39.333 -7.5 -76.333 -22.5 -111s-35.5 -65 -61.5 -91s-56.5 -46.5 -91.5 -61.5s-72.167 -22.5 -111.5 -22.5c-60 0 -113.167 16.333 -159.5 49s-81.166 74.334 -104.499 125.001c-15.333 36.667 -23 74 -23 112zM520.003 679.999h435l-140 494
c-8 27.333 -18.167 45.333 -30.5 54s-26.5 13 -42.5 13c-18 0 -32.833 -4.83301 -44.5 -14.5s-21.5 -27.167 -29.5 -52.5zM637.003 1853c0 -31.333 10 -58.499 30 -81.499s47.667 -34.5 83 -34.5s63 11.5 83 34.5s30 50.167 30 81.5s-10.333 58.666 -31 81.999
s-48 35 -82 35c-32.667 0 -59.667 -11.5 -81 -34.5s-32 -50.5 -32 -82.5z" />
    <glyph glyph-name="AE" unicode="&#xc6;" horiz-adv-x="2105" 
d="M10 49l549 1155c20.667 42 41.5 79.833 62.5 113.5s46.5 62.167 76.5 85.5s65.5 41.5 106.5 54.5s91.5 19.5 151.5 19.5h1063v-260h-757v-347h583v-260h-583v-350h772v-260h-1078v537h-372l-271 -568zM680 799l276 -0.000976562v430
c-27.333 -1.33301 -50.833 -11.666 -70.5 -30.999s-40.5 -51.333 -62.5 -96z" />
    <glyph glyph-name="Ccedilla" unicode="&#xc7;" horiz-adv-x="1400" 
d="M78 737c0 110.667 16.335 212.837 49.002 306.504s81.167 174.667 145.5 243s144.166 121.5 239.499 159.5s206 57 332 57c102.667 0 193.167 -10.167 271.5 -30.5s152.166 -45.5 221.499 -75.5l-94 -248c-49.333 20.667 -92.666 36.667 -129.999 48
s-71.666 20.166 -102.999 26.499s-60.666 10.5 -87.999 12.5s-55.333 3 -84 3c-140.667 0 -248.667 -43.333 -324 -130s-113 -210.667 -113 -372c0 -172 37.667 -299.667 113 -383s182.666 -125 321.999 -125c39.333 0 75.333 2.16699 108 6.5s65.167 10.5 97.5 18.5
s66.166 18.5 101.499 31.5s76.333 29.167 123 48.5l94 -242c-78 -36.667 -153.5 -65.334 -226.5 -86.001s-155.167 -33.667 -246.5 -39l-13 -63c61.333 -8 110.166 -27.5 146.499 -58.5s54.5 -75.167 54.5 -132.5c0 -74 -23.833 -132.333 -71.5 -175s-118.5 -64 -212.5 -64
c-44 0 -92.667 6.5 -146 19.5s-98.333 32.167 -135 57.5l78 160c4 -2.66699 12.167 -6.66699 24.5 -12s27 -10.833 44 -16.5s35 -10.5 54 -14.5s38.167 -6 57.5 -6c50.667 0 76 18.333 76 55c0 18 -6.83301 32.167 -20.5 42.5s-30.834 18.166 -51.501 23.499
s-43.167 8.66602 -67.5 9.99902s-47.5 2 -69.5 2l45 178c-109.333 12 -202.166 39.667 -278.499 83s-138.5 98.833 -186.5 166.5s-82.833 145.167 -104.5 232.5s-32.5 181.333 -32.5 282z" />
    <glyph glyph-name="Egrave" unicode="&#xc8;" horiz-adv-x="1290" 
d="M141 0v1477h1061v-260h-758v-316h586v-262h-586v-379h775v-260h-1078zM354 1872l193 182l332 -356l-154 -135z" />
    <glyph glyph-name="Eacute" unicode="&#xc9;" horiz-adv-x="1290" 
d="M141 0v1477h1061v-260h-758v-316h586v-262h-586v-379h775v-260h-1078zM502 1698l334 356l193 -182l-371 -309z" />
    <glyph glyph-name="Ecircumflex" unicode="&#xca;" horiz-adv-x="1290" 
d="M141 0v1477h1061v-260h-758v-316h586v-262h-586v-379h775v-260h-1078zM331 1683l248 263h207l235 -260l-155 -121l-189 174l-186 -174z" />
    <glyph glyph-name="Edieresis" unicode="&#xcb;" horiz-adv-x="1290" 
d="M141 0v1477h1061v-260h-758v-316h586v-262h-586v-379h775v-260h-1078zM291 1755c0 46.667 14 86.335 42 119.002s69 49 123 49c52 0 92.333 -16.333 121 -49s43 -72.334 43 -119.001s-14.333 -86.334 -43 -119.001s-69 -49 -121 -49c-54 0 -95.333 16.333 -124 49
c-27.333 34 -41 73.667 -41 119zM751 1755c0 46.667 13.332 86.335 39.999 119.002s67.334 49 122.001 49c53.333 0 93.666 -16.333 120.999 -49s41 -72.334 41 -119.001s-13.667 -86.334 -41 -119.001s-67.666 -49 -120.999 -49c-56 0 -97 16.333 -123 49
c-26 31.333 -39 71 -39 119z" />
    <glyph glyph-name="Igrave" unicode="&#xcc;" horiz-adv-x="602" 
d="M10 1872l193 182l332 -356l-154 -135zM145 0v1477h312v-1477h-312z" />
    <glyph glyph-name="Iacute" unicode="&#xcd;" horiz-adv-x="602" 
d="M80 1698l334 356l193 -182l-371 -309zM145 0v1477h312v-1477h-312z" />
    <glyph glyph-name="Icircumflex" unicode="&#xce;" horiz-adv-x="602" 
d="M-39 1683l248 263h207l235 -260l-155 -121l-189 174l-186 -174zM145 0v1477h312v-1477h-312z" />
    <glyph glyph-name="Idieresis" unicode="&#xcf;" horiz-adv-x="602" 
d="M-84 1755c0 46.667 14 86.335 42 119.002s69 49 123 49c52 0 92.333 -16.333 121 -49s43 -72.334 43 -119.001s-14.333 -86.334 -43 -119.001s-69 -49 -121 -49c-54 0 -95.333 16.333 -124 49c-27.333 34 -41 73.667 -41 119zM145 0.000976562v1477h312v-1477h-312z
M376 1755c0 46.667 13.332 86.335 39.999 119.002s67.334 49 122.001 49c53.333 0 93.666 -16.333 120.999 -49s41 -72.334 41 -119.001s-13.667 -86.334 -41 -119.001s-67.666 -49 -120.999 -49c-56 0 -97 16.333 -123 49c-26 31.333 -39 71 -39 119z" />
    <glyph glyph-name="Eth" unicode="&#xd0;" horiz-adv-x="1607" 
d="M45 606l0.00195312 263.999h148v607h614c116 0 219 -17.833 309 -53.5s165.833 -85.5 227.5 -149.5s108.167 -141.167 139.5 -231.5s47 -190.166 47 -299.499c0 -108 -14.333 -207.333 -43 -298s-72.334 -169 -131.001 -235s-133.834 -117.5 -225.501 -154.5
s-199.5 -55.5 -323.5 -55.5h-614v606h-148zM500.002 259.999h293c135.333 0 239.333 37.167 312 111.5s109 194.833 109 361.5c0 168 -36.833 290.667 -110.5 368s-177.167 116 -310.5 116h-293v-347h356v-264h-356v-346z" />
    <glyph glyph-name="Ntilde" unicode="&#xd1;" horiz-adv-x="1527" 
d="M141 0l-0.000976562 1477h314l635 -1102v1102h296v-1133c0 -34 -1.66699 -69.833 -5 -107.5s-7.66602 -65.834 -12.999 -84.501c-10.667 -36.667 -24.667 -66 -42 -88s-35.5 -38.5 -54.5 -49.5s-38 -17.833 -57 -20.5s-36.167 -4 -51.5 -4
c-57.333 0 -107.833 17.333 -151.5 52s-90.167 94.334 -139.5 179.001l-432 717v-938h-299zM395.999 1599c0 94 12.834 167 38.501 219s69.5 82.333 131.5 91c5.33301 1.33301 13.333 2 24 2h25c32.667 -2.66699 66 -10.5 100 -23.5l100 -36.5l52 -18l52 -17.5
c15.333 -5 28.666 -7.5 39.999 -7.5c28.667 0 46 10 52 30s9 45 9 75h183c0 -102.667 -16.5 -180.667 -49.5 -234s-80.833 -80 -143.5 -80c-35.333 0 -72.833 6.83301 -112.5 20.5l-110.5 39.5l-55 20l-56.5 18.5c-17 5.66699 -31.167 8.5 -42.5 8.5
c-27.333 0 -44 -9.5 -50 -28.5s-9 -45.167 -9 -78.5h-178z" />
    <glyph glyph-name="Ograve" unicode="&#xd2;" horiz-adv-x="1583" 
d="M78 735c0 98 13.333 193.167 40 285.5s69 174.333 127 246s132 129 222 172s198.667 64.5 326 64.5c132.667 0 244.334 -21.5 335.001 -64.5s164 -100.333 220 -172s96.5 -153.5 121.5 -245.5s37.5 -187.333 37.5 -286c0 -98 -13.333 -193.5 -40 -286.5
s-69 -175.333 -127 -247s-132 -129 -222 -172s-198.333 -64.5 -325 -64.5c-132.667 0 -244.334 21.667 -335.001 65s-164.667 100.333 -222 171c-57.333 74 -98 157 -122 249s-36 187 -36 285zM401 735c0 -106.667 17.332 -200.666 51.999 -281.999s89 -142.333 163 -183
c48 -26 107 -39 177 -39c68 0 126.5 13.333 175.5 40s89.667 62.5 122 107.5s56 98.333 71 160s22.5 127.167 22.5 196.5s-7.5 134.5 -22.5 195.5s-38.667 114.333 -71 160s-73 81.5 -122 107.5s-107.5 39 -175.5 39s-126.667 -13 -176 -39s-90.166 -61.833 -122.499 -107.5
s-56 -98.834 -71 -159.501s-22.5 -126 -22.5 -196zM501.999 1872l193 182l332 -356l-154 -135z" />
    <glyph glyph-name="Oacute" unicode="&#xd3;" horiz-adv-x="1583" 
d="M78 735c0 98 13.333 193.167 40 285.5s69 174.333 127 246s132 129 222 172s198.667 64.5 326 64.5c132.667 0 244.334 -21.5 335.001 -64.5s164 -100.333 220 -172s96.5 -153.5 121.5 -245.5s37.5 -187.333 37.5 -286c0 -98 -13.333 -193.5 -40 -286.5
s-69 -175.333 -127 -247s-132 -129 -222 -172s-198.333 -64.5 -325 -64.5c-132.667 0 -244.334 21.667 -335.001 65s-164.667 100.333 -222 171c-57.333 74 -98 157 -122 249s-36 187 -36 285zM401 735c0 -106.667 17.332 -200.666 51.999 -281.999s89 -142.333 163 -183
c48 -26 107 -39 177 -39c68 0 126.5 13.333 175.5 40s89.667 62.5 122 107.5s56 98.333 71 160s22.5 127.167 22.5 196.5s-7.5 134.5 -22.5 195.5s-38.667 114.333 -71 160s-73 81.5 -122 107.5s-107.5 39 -175.5 39s-126.667 -13 -176 -39s-90.166 -61.833 -122.499 -107.5
s-56 -98.834 -71 -159.501s-22.5 -126 -22.5 -196zM580.999 1698l334 356l193 -182l-371 -309z" />
    <glyph glyph-name="Ocircumflex" unicode="&#xd4;" horiz-adv-x="1583" 
d="M78 735c0 98 13.333 193.167 40 285.5s69 174.333 127 246s132 129 222 172s198.667 64.5 326 64.5c132.667 0 244.334 -21.5 335.001 -64.5s164 -100.333 220 -172s96.5 -153.5 121.5 -245.5s37.5 -187.333 37.5 -286c0 -98 -13.333 -193.5 -40 -286.5
s-69 -175.333 -127 -247s-132 -129 -222 -172s-198.333 -64.5 -325 -64.5c-132.667 0 -244.334 21.667 -335.001 65s-164.667 100.333 -222 171c-57.333 74 -98 157 -122 249s-36 187 -36 285zM401 735c0 -106.667 17.332 -200.666 51.999 -281.999s89 -142.333 163 -183
c48 -26 107 -39 177 -39c68 0 126.5 13.333 175.5 40s89.667 62.5 122 107.5s56 98.333 71 160s22.5 127.167 22.5 196.5s-7.5 134.5 -22.5 195.5s-38.667 114.333 -71 160s-73 81.5 -122 107.5s-107.5 39 -175.5 39s-126.667 -13 -176 -39s-90.166 -61.833 -122.499 -107.5
s-56 -98.834 -71 -159.501s-22.5 -126 -22.5 -196zM459.999 1683l248 263h207l235 -260l-155 -121l-189 174l-186 -174z" />
    <glyph glyph-name="Otilde" unicode="&#xd5;" horiz-adv-x="1583" 
d="M78 735c0 98 13.333 193.167 40 285.5s69 174.333 127 246s132 129 222 172s198.667 64.5 326 64.5c132.667 0 244.334 -21.5 335.001 -64.5s164 -100.333 220 -172s96.5 -153.5 121.5 -245.5s37.5 -187.333 37.5 -286c0 -98 -13.333 -193.5 -40 -286.5
s-69 -175.333 -127 -247s-132 -129 -222 -172s-198.333 -64.5 -325 -64.5c-132.667 0 -244.334 21.667 -335.001 65s-164.667 100.333 -222 171c-57.333 74 -98 157 -122 249s-36 187 -36 285zM401 735c0 -106.667 17.332 -200.666 51.999 -281.999s89 -142.333 163 -183
c48 -26 107 -39 177 -39c68 0 126.5 13.333 175.5 40s89.667 62.5 122 107.5s56 98.333 71 160s22.5 127.167 22.5 196.5s-7.5 134.5 -22.5 195.5s-38.667 114.333 -71 160s-73 81.5 -122 107.5s-107.5 39 -175.5 39s-126.667 -13 -176 -39s-90.166 -61.833 -122.499 -107.5
s-56 -98.834 -71 -159.501s-22.5 -126 -22.5 -196zM401.999 1599c0 94 12.834 167 38.501 219s69.5 82.333 131.5 91c5.33301 1.33301 13.333 2 24 2h25c32.667 -2.66699 66 -10.5 100 -23.5l100 -36.5l52 -18l52 -17.5c15.333 -5 28.666 -7.5 39.999 -7.5
c28.667 0 46 10 52 30s9 45 9 75h183c0 -102.667 -16.5 -180.667 -49.5 -234s-80.833 -80 -143.5 -80c-35.333 0 -72.833 6.83301 -112.5 20.5l-110.5 39.5l-55 20l-56.5 18.5c-17 5.66699 -31.167 8.5 -42.5 8.5c-27.333 0 -44 -9.5 -50 -28.5s-9 -45.167 -9 -78.5h-178z
" />
    <glyph glyph-name="Odieresis" unicode="&#xd6;" horiz-adv-x="1583" 
d="M78 735c0 98 13.333 193.167 40 285.5s69 174.333 127 246s132 129 222 172s198.667 64.5 326 64.5c132.667 0 244.334 -21.5 335.001 -64.5s164 -100.333 220 -172s96.5 -153.5 121.5 -245.5s37.5 -187.333 37.5 -286c0 -98 -13.333 -193.5 -40 -286.5
s-69 -175.333 -127 -247s-132 -129 -222 -172s-198.333 -64.5 -325 -64.5c-132.667 0 -244.334 21.667 -335.001 65s-164.667 100.333 -222 171c-57.333 74 -98 157 -122 249s-36 187 -36 285zM401 735c0 -106.667 17.332 -200.666 51.999 -281.999s89 -142.333 163 -183
c48 -26 107 -39 177 -39c68 0 126.5 13.333 175.5 40s89.667 62.5 122 107.5s56 98.333 71 160s22.5 127.167 22.5 196.5s-7.5 134.5 -22.5 195.5s-38.667 114.333 -71 160s-73 81.5 -122 107.5s-107.5 39 -175.5 39s-126.667 -13 -176 -39s-90.166 -61.833 -122.499 -107.5
s-56 -98.834 -71 -159.501s-22.5 -126 -22.5 -196zM403.999 1755c0 46.667 14 86.335 42 119.002s69 49 123 49c52 0 92.333 -16.333 121 -49s43 -72.334 43 -119.001s-14.333 -86.334 -43 -119.001s-69 -49 -121 -49c-54 0 -95.333 16.333 -124 49
c-27.333 34 -41 73.667 -41 119zM863.999 1755c0 46.667 13.332 86.335 39.999 119.002s67.334 49 122.001 49c53.333 0 93.666 -16.333 120.999 -49s41 -72.334 41 -119.001s-13.667 -86.334 -41 -119.001s-67.666 -49 -120.999 -49c-56 0 -97 16.333 -123 49
c-26 31.333 -39 71 -39 119z" />
    <glyph glyph-name="multiply" unicode="&#xd7;" horiz-adv-x="1372" 
d="M256 948l178 178l258 -258l248 248l170 -172l-248 -248l252 -252l-176 -178l-252 254l-250 -248l-170 170l248 248z" />
    <glyph glyph-name="Oslash" unicode="&#xd8;" horiz-adv-x="1576" 
d="M74 727c0 98 13.335 193.502 40.002 286.502s68.667 176 126 249s131 131.333 221 175s199 65.5 327 65.5c46.667 0 90.5 -3.33301 131.5 -10s79.833 -15.667 116.5 -27l78 148h281l-142 -264c44 -36.667 81.667 -78.667 113 -126s57.333 -98 78 -152
s35.667 -110.333 45 -169s14 -117.334 14 -176.001c0 -101.333 -13 -198 -39 -290s-67.667 -172.833 -125 -242.5s-131.333 -125.334 -222 -167.001s-200.334 -62.5 -329.001 -62.5c-48 0 -92.333 3.16699 -133 9.5s-79.334 14.833 -116.001 25.5l-88 -168h-281l149 281
c-86 70.667 -148.333 159.667 -187 267s-58 223 -58 347zM397.002 729.002c0 -62.667 6.16797 -121.001 18.501 -175.001s32.166 -102.667 59.499 -146l428 809c-28.667 13.333 -67 20 -115 20c-66.667 0 -124.5 -13.333 -173.5 -40s-89.667 -63.167 -122 -109.5
s-56.333 -100.166 -72 -161.499s-23.5 -127 -23.5 -197zM672.003 252.001c31.333 -13.333 70 -20.333 116 -21c66.667 0 124.667 13 174 39s90.5 61.167 123.5 105.5s57.333 97 73 158s23.5 126.167 23.5 195.5c0 62.667 -6.83301 122 -20.5 178s-34.167 105.333 -61.5 148z
" />
    <glyph glyph-name="Ugrave" unicode="&#xd9;" horiz-adv-x="1499" 
d="M135 612v865h307v-822c0 -66.667 3.83301 -126.667 11.5 -180s22.667 -98.333 45 -135s53.333 -65 93 -85s92.5 -30 158.5 -30c64 0 115.833 10 155.5 30s70.667 48 93 84s37.333 80 45 132s11.5 110 11.5 174v832h309v-838c0 -98 -8.5 -188.333 -25.5 -271
s-48.333 -153.667 -94 -213s-108.5 -105.833 -188.5 -139.5s-182 -50.5 -306 -50.5c-126.667 0 -230.167 15 -310.5 45s-143 73 -188 129s-75.667 124 -92 204s-24.5 169.667 -24.5 269zM442 1872l193 182l332 -356l-154 -135z" />
    <glyph glyph-name="Uacute" unicode="&#xda;" horiz-adv-x="1499" 
d="M135 612v865h307v-822c0 -66.667 3.83301 -126.667 11.5 -180s22.667 -98.333 45 -135s53.333 -65 93 -85s92.5 -30 158.5 -30c64 0 115.833 10 155.5 30s70.667 48 93 84s37.333 80 45 132s11.5 110 11.5 174v832h309v-838c0 -98 -8.5 -188.333 -25.5 -271
s-48.333 -153.667 -94 -213s-108.5 -105.833 -188.5 -139.5s-182 -50.5 -306 -50.5c-126.667 0 -230.167 15 -310.5 45s-143 73 -188 129s-75.667 124 -92 204s-24.5 169.667 -24.5 269zM581 1698l334 356l193 -182l-371 -309z" />
    <glyph glyph-name="Ucircumflex" unicode="&#xdb;" horiz-adv-x="1499" 
d="M135 612v865h307v-822c0 -66.667 3.83301 -126.667 11.5 -180s22.667 -98.333 45 -135s53.333 -65 93 -85s92.5 -30 158.5 -30c64 0 115.833 10 155.5 30s70.667 48 93 84s37.333 80 45 132s11.5 110 11.5 174v832h309v-838c0 -98 -8.5 -188.333 -25.5 -271
s-48.333 -153.667 -94 -213s-108.5 -105.833 -188.5 -139.5s-182 -50.5 -306 -50.5c-126.667 0 -230.167 15 -310.5 45s-143 73 -188 129s-75.667 124 -92 204s-24.5 169.667 -24.5 269zM428 1683l248 263h207l235 -260l-155 -121l-189 174l-186 -174z" />
    <glyph glyph-name="Udieresis" unicode="&#xdc;" horiz-adv-x="1499" 
d="M135 612v865h307v-822c0 -66.667 3.83301 -126.667 11.5 -180s22.667 -98.333 45 -135s53.333 -65 93 -85s92.5 -30 158.5 -30c64 0 115.833 10 155.5 30s70.667 48 93 84s37.333 80 45 132s11.5 110 11.5 174v832h309v-838c0 -98 -8.5 -188.333 -25.5 -271
s-48.333 -153.667 -94 -213s-108.5 -105.833 -188.5 -139.5s-182 -50.5 -306 -50.5c-126.667 0 -230.167 15 -310.5 45s-143 73 -188 129s-75.667 124 -92 204s-24.5 169.667 -24.5 269zM379 1755c0 46.667 14 86.335 42 119.002s69 49 123 49c52 0 92.333 -16.333 121 -49
s43 -72.334 43 -119.001s-14.333 -86.334 -43 -119.001s-69 -49 -121 -49c-54 0 -95.333 16.333 -124 49c-27.333 34 -41 73.667 -41 119zM839 1755c0 46.667 13.332 86.335 39.999 119.002s67.334 49 122.001 49c53.333 0 93.666 -16.333 120.999 -49
s41 -72.334 41 -119.001s-13.667 -86.334 -41 -119.001s-67.666 -49 -120.999 -49c-56 0 -97 16.333 -123 49c-26 31.333 -39 71 -39 119z" />
    <glyph glyph-name="Yacute" unicode="&#xdd;" horiz-adv-x="1368" 
d="M12 1384l275 115l309 -665c15.333 -31.333 29.5 -51.833 42.5 -61.5s28.167 -14.5 45.5 -14.5c20.667 0 37.167 5 49.5 15s25.833 31 40.5 63l312 663l274 -110l-281 -605c-34 -74 -68.667 -134.5 -104 -181.5s-82.333 -81.167 -141 -102.5v-500h-310v498
c-56 19.333 -100.667 51 -134 95s-66.333 102.333 -99 175zM500 1698l334 356l193 -182l-371 -309z" />
    <glyph glyph-name="Thorn" unicode="&#xde;" horiz-adv-x="1312" 
d="M141 0v1477h305v-209h261c70.667 0 137.834 -9 201.501 -27s119.334 -46 167.001 -84s85.5 -88.167 113.5 -150.5s42 -137.166 42 -224.499c0 -72.667 -13.667 -138.167 -41 -196.5s-64.833 -108.666 -112.5 -150.999s-104.334 -75.166 -170.001 -98.499
s-136.834 -35 -213.501 -35h-248v-301h-305zM446 556.997l221.999 -0.00292969c30 0 60 3.83301 90 11.5s56.833 20.334 80.5 38.001s42.834 40.834 57.501 69.501s22 64 22 106c0 50.667 -6.83301 91.334 -20.5 122.001s-32.5 54.167 -56.5 70.5s-51 27.333 -81 33
s-61.333 8.5 -94 8.5h-220v-459z" />
    <glyph glyph-name="germandbls" unicode="&#xdf;" horiz-adv-x="1275" 
d="M125 0l-0.00292969 1081c0 126.667 39.167 228.667 117.5 306s199.5 116 363.5 116c91.333 0 166.833 -9.16699 226.5 -27.5s106.834 -42.5 141.501 -72.5s58.834 -63.167 72.501 -99.5s20.5 -72.166 20.5 -107.499c0 -45.333 -9.16699 -86.333 -27.5 -123
s-38.166 -70.334 -59.499 -101.001l-59.5 -85c-18.333 -26 -27.5 -51.333 -27.5 -76c0 -22 7.83301 -42.5 23.5 -61.5s35.834 -38.833 60.501 -59.5l78 -64.5c27.333 -22.333 53.166 -47.833 77.499 -76.5s44.5 -62.167 60.5 -100.5s24 -82.166 24 -131.499
s-7.16699 -95 -21.5 -137s-38 -78.667 -71 -110s-75.333 -56.333 -127 -75s-115.167 -28 -190.5 -28c-49.333 0 -100.333 5.16699 -153 15.5s-94 21.5 -124 33.5l50 244c31.333 -12 64.666 -22.833 99.999 -32.5s75 -14.5 119 -14.5c46.667 0 78.834 10.5 96.501 31.5
s26.5 45.167 26.5 72.5s-8 51.666 -24 72.999s-36.167 41.5 -60.5 60.5s-50.166 37.833 -77.499 56.5s-53.333 39.5 -78 62.5s-44.834 48.833 -60.501 77.5s-23.5 63 -23.5 103c0 40.667 9.16699 77.334 27.5 110.001s38.5 64 60.5 94s42.167 59.333 60.5 88
s27.5 59 27.5 91c0 34 -14 64 -42 90s-70.667 39 -128 39c-62.667 0 -109.667 -18.833 -141 -56.5s-47 -87.834 -47 -150.501v-1055h-291z" />
    <glyph glyph-name="agrave" unicode="&#xe0;" horiz-adv-x="1132" 
d="M61 301c0 62.667 12.0029 115.833 36.0029 159.5s56.167 78.834 96.5 105.501s85.666 45.834 135.999 57.501s102.166 17.5 155.499 17.5h219v37c0 57.333 -15.667 98 -47 122s-74.333 36 -129 36c-42 0 -85.167 -3.5 -129.5 -10.5s-100.833 -22.167 -169.5 -45.5
l-80 217c57.333 22 120.833 40.833 190.5 56.5s146.167 23.5 229.5 23.5c87.333 0 159 -10.167 215 -30.5s100.167 -49.333 132.5 -87s54.5 -82.834 66.5 -135.501s18 -111.667 18 -177v-399l101 -146l-213 -149l-88 104c-35.333 -20.667 -82.833 -41.167 -142.5 -61.5
s-124.834 -30.5 -195.501 -30.5c-56 0 -108.333 6.16699 -157 18.5s-91 31.833 -127 58.5s-64.667 61.167 -86 103.5s-32 94.166 -32 155.499zM258.003 1532l238 162l270 -412l-176 -123zM364.003 310.999c0 -42 12.668 -73.666 38.001 -94.999s61.333 -32 108 -32
c40.667 0 77.167 5.5 109.5 16.5s62.166 25.5 89.499 43.5v190h-203c-44 0 -78.667 -10.833 -104 -32.5s-38 -51.834 -38 -90.501z" />
    <glyph glyph-name="aacute" unicode="&#xe1;" horiz-adv-x="1132" 
d="M61 301c0 62.667 12.0029 115.833 36.0029 159.5s56.167 78.834 96.5 105.501s85.666 45.834 135.999 57.501s102.166 17.5 155.499 17.5h219v37c0 57.333 -15.667 98 -47 122s-74.333 36 -129 36c-42 0 -85.167 -3.5 -129.5 -10.5s-100.833 -22.167 -169.5 -45.5
l-80 217c57.333 22 120.833 40.833 190.5 56.5s146.167 23.5 229.5 23.5c87.333 0 159 -10.167 215 -30.5s100.167 -49.333 132.5 -87s54.5 -82.834 66.5 -135.501s18 -111.667 18 -177v-399l101 -146l-213 -149l-88 104c-35.333 -20.667 -82.833 -41.167 -142.5 -61.5
s-124.834 -30.5 -195.501 -30.5c-56 0 -108.333 6.16699 -157 18.5s-91 31.833 -127 58.5s-64.667 61.167 -86 103.5s-32 94.166 -32 155.499zM364.003 310.999c0 -42 12.668 -73.666 38.001 -94.999s61.333 -32 108 -32c40.667 0 77.167 5.5 109.5 16.5
s62.166 25.5 89.499 43.5v190h-203c-44 0 -78.667 -10.833 -104 -32.5s-38 -51.834 -38 -90.501zM398.004 1282l268 412l231 -162l-325 -373z" />
    <glyph glyph-name="acircumflex" unicode="&#xe2;" horiz-adv-x="1132" 
d="M61 301c0 62.667 12.0029 115.833 36.0029 159.5s56.167 78.834 96.5 105.501s85.666 45.834 135.999 57.501s102.166 17.5 155.499 17.5h219v37c0 57.333 -15.667 98 -47 122s-74.333 36 -129 36c-42 0 -85.167 -3.5 -129.5 -10.5s-100.833 -22.167 -169.5 -45.5
l-80 217c57.333 22 120.833 40.833 190.5 56.5s146.167 23.5 229.5 23.5c87.333 0 159 -10.167 215 -30.5s100.167 -49.333 132.5 -87s54.5 -82.834 66.5 -135.501s18 -111.667 18 -177v-399l101 -146l-213 -149l-88 104c-35.333 -20.667 -82.833 -41.167 -142.5 -61.5
s-124.834 -30.5 -195.501 -30.5c-56 0 -108.333 6.16699 -157 18.5s-91 31.833 -127 58.5s-64.667 61.167 -86 103.5s-32 94.166 -32 155.499zM205.003 1276l264 344h193l252 -344l-162 -115l-189 225l-190 -223zM364.003 310.999c0 -42 12.668 -73.666 38.001 -94.999
s61.333 -32 108 -32c40.667 0 77.167 5.5 109.5 16.5s62.166 25.5 89.499 43.5v190h-203c-44 0 -78.667 -10.833 -104 -32.5s-38 -51.834 -38 -90.501z" />
    <glyph glyph-name="atilde" unicode="&#xe3;" horiz-adv-x="1132" 
d="M61 301c0 62.667 12.0029 115.833 36.0029 159.5s56.167 78.834 96.5 105.501s85.666 45.834 135.999 57.501s102.166 17.5 155.499 17.5h219v37c0 57.333 -15.667 98 -47 122s-74.333 36 -129 36c-42 0 -85.167 -3.5 -129.5 -10.5s-100.833 -22.167 -169.5 -45.5
l-80 217c57.333 22 120.833 40.833 190.5 56.5s146.167 23.5 229.5 23.5c87.333 0 159 -10.167 215 -30.5s100.167 -49.333 132.5 -87s54.5 -82.834 66.5 -135.501s18 -111.667 18 -177v-399l101 -146l-213 -149l-88 104c-35.333 -20.667 -82.833 -41.167 -142.5 -61.5
s-124.834 -30.5 -195.501 -30.5c-56 0 -108.333 6.16699 -157 18.5s-91 31.833 -127 58.5s-64.667 61.167 -86 103.5s-32 94.166 -32 155.499zM152.003 1229c0 94 12.834 167.002 38.501 219.002s69.5 82 131.5 90c5.33301 1.33301 13.333 2 24 2h25
c32.667 -2.66699 66.334 -9.83398 101.001 -21.501s67.667 -24.167 99 -37.5l52 -19c19.333 -6.66699 36.666 -12.334 51.999 -17.001s28.666 -7 39.999 -7c28.667 0 46 9.83301 52 29.5s9 44.5 9 74.5h183c0 -102.667 -16.5 -180.5 -49.5 -233.5
s-80.833 -79.5 -143.5 -79.5c-35.333 0 -72.833 6.83301 -112.5 20.5l-110.5 38.5l-55 21l-56.5 18c-17 5.33301 -31.167 8 -42.5 8c-27.333 0 -44 -9.5 -50 -28.5s-9 -44.833 -9 -77.5h-178zM364.004 311.001c0 -42 12.668 -73.666 38.001 -94.999s61.333 -32 108 -32
c40.667 0 77.167 5.5 109.5 16.5s62.166 25.5 89.499 43.5v190h-203c-44 0 -78.667 -10.833 -104 -32.5s-38 -51.834 -38 -90.501z" />
    <glyph glyph-name="adieresis" unicode="&#xe4;" horiz-adv-x="1132" 
d="M61 301c0 62.667 12.0029 115.833 36.0029 159.5s56.167 78.834 96.5 105.501s85.666 45.834 135.999 57.501s102.166 17.5 155.499 17.5h219v37c0 57.333 -15.667 98 -47 122s-74.333 36 -129 36c-42 0 -85.167 -3.5 -129.5 -10.5s-100.833 -22.167 -169.5 -45.5
l-80 217c57.333 22 120.833 40.833 190.5 56.5s146.167 23.5 229.5 23.5c87.333 0 159 -10.167 215 -30.5s100.167 -49.333 132.5 -87s54.5 -82.834 66.5 -135.501s18 -111.667 18 -177v-399l101 -146l-213 -149l-88 104c-35.333 -20.667 -82.833 -41.167 -142.5 -61.5
s-124.834 -30.5 -195.501 -30.5c-56 0 -108.333 6.16699 -157 18.5s-91 31.833 -127 58.5s-64.667 61.167 -86 103.5s-32 94.166 -32 155.499zM162.003 1376c0 46.667 14 86.334 42 119.001s69 49 123 49c52 0 92 -16.333 120 -49s42 -72.334 42 -119.001s-14 -86 -42 -118
s-68 -48 -120 -48c-54 0 -95.333 15.667 -124 47c-27.333 34 -41 73.667 -41 119zM364.003 310.999c0 -42 12.668 -73.666 38.001 -94.999s61.333 -32 108 -32c40.667 0 77.167 5.5 109.5 16.5s62.166 25.5 89.499 43.5v190h-203c-44 0 -78.667 -10.833 -104 -32.5
s-38 -51.834 -38 -90.501zM620.004 1376c0 46.667 13 86.334 39 119.001s67.667 49 125 49c53.333 0 93.666 -16.333 120.999 -49s41 -72.334 41 -119.001s-13.667 -86 -41 -118s-67.666 -48 -120.999 -48c-56 0 -97.667 15.667 -125 47c-26 31.333 -39 71 -39 119z" />
    <glyph glyph-name="aring" unicode="&#xe5;" horiz-adv-x="1132" 
d="M61 301c0 62.667 12.0029 115.833 36.0029 159.5s56.167 78.834 96.5 105.501s85.666 45.834 135.999 57.501s102.166 17.5 155.499 17.5h219v37c0 57.333 -15.667 98 -47 122s-74.333 36 -129 36c-42 0 -85.167 -3.5 -129.5 -10.5s-100.833 -22.167 -169.5 -45.5
l-80 217c57.333 22 120.833 40.833 190.5 56.5s146.167 23.5 229.5 23.5c87.333 0 159 -10.167 215 -30.5s100.167 -49.333 132.5 -87s54.5 -82.834 66.5 -135.501s18 -111.667 18 -177v-399l101 -146l-213 -149l-88 104c-35.333 -20.667 -82.833 -41.167 -142.5 -61.5
s-124.834 -30.5 -195.501 -30.5c-56 0 -108.333 6.16699 -157 18.5s-91 31.833 -127 58.5s-64.667 61.167 -86 103.5s-32 94.166 -32 155.499zM266.003 1454c0 39.333 7.49902 76.498 22.499 111.498s35.5 65.5 61.5 91.5s56.5 46.5 91.5 61.5s72.167 22.5 111.5 22.5
s76.5 -7.5 111.5 -22.5s65.5 -35.5 91.5 -61.5s46.5 -56.5 61.5 -91.5s22.5 -72.167 22.5 -111.5s-7.5 -76.5 -22.5 -111.5s-35.5 -65.5 -61.5 -91.5s-56.5 -46.5 -91.5 -61.5s-72.167 -22.5 -111.5 -22.5c-60 0 -113.167 16.333 -159.5 49s-81.166 74.334 -104.499 125.001
c-15.333 36.667 -23 74.334 -23 113.001zM364.002 310.997c0 -42 12.668 -73.666 38.001 -94.999s61.333 -32 108 -32c40.667 0 77.167 5.5 109.5 16.5s62.166 25.5 89.499 43.5v190h-203c-44 0 -78.667 -10.833 -104 -32.5s-38 -51.834 -38 -90.501zM440.003 1454
c0 -31.333 10 -59 30 -83s47.667 -36 83 -36s63 12 83 36s30 51.667 30 83s-10.333 58.666 -31 81.999s-48 35 -82 35c-32.667 0 -59.667 -11.667 -81 -35s-32 -50.666 -32 -81.999z" />
    <glyph glyph-name="ae" unicode="&#xe6;" horiz-adv-x="1773" 
d="M61 301c0 62.667 11.9961 115.497 35.9961 158.497s56.167 77.833 96.5 104.5s85.833 45.834 136.5 57.501s102.334 17.5 155.001 17.5h217v41c0 57.333 -13.167 97.333 -39.5 120s-65.5 34 -117.5 34c-45.333 0 -91.833 -3.16699 -139.5 -9.5
s-106.5 -21.166 -176.5 -44.499l-79 217c57.333 20.667 123.5 39.167 198.5 55.5s154.167 24.5 237.5 24.5c82 0 147.5 -10.833 196.5 -32.5s89.167 -58.5 120.5 -110.5c36.667 38 82.334 71.333 137.001 100s124.334 43 209.001 43c74 0 139.333 -13 196 -39
s103.667 -63.167 141 -111.5s66 -106.666 86 -174.999s30 -144.833 30 -229.5l-86 -82h-598c2.66699 -62.667 25.167 -115.5 67.5 -158.5s102.5 -64.5 180.5 -64.5c26 0 51.167 1 75.5 3s50.166 5.5 77.499 10.5s57 11.833 89 20.5s68.667 20 110 34l80 -232
c-57.333 -23.333 -125.333 -43.833 -204 -61.5s-163 -26.5 -253 -26.5c-86 0 -159.333 10.333 -220 31s-113 49.334 -157 86.001c-69.333 -44 -137.166 -74.5 -203.499 -91.5s-132.166 -25.5 -197.499 -25.5c-56 0 -108.333 6.16699 -157 18.5s-91 31.833 -127 58.5
s-64.667 61.167 -86 103.5s-32 94.166 -32 155.499zM364.996 310.997c0 -84.667 51 -127 153 -127c48 0 90.333 7.16699 127 21.5s68.667 29.833 96 46.5c-10.667 27.333 -19 56.333 -25 87s-10.667 61.667 -14 93h-196c-44 0 -78.5 -10.833 -103.5 -32.5
s-37.5 -51.167 -37.5 -88.5zM1022 636.997h359.999c-2.66699 69.333 -19 119.833 -49 151.5s-69.667 47.5 -119 47.5c-57.333 0 -102.666 -18.833 -135.999 -56.5s-52 -85.167 -56 -142.5z" />
    <glyph glyph-name="ccedilla" unicode="&#xe7;" horiz-adv-x="1095" 
d="M74 514c0 79.333 12.665 153.499 37.998 222.499s62.166 128.667 110.499 179s108 89.833 179 118.5s151.5 43 241.5 43c82 0 155 -6.83301 219 -20.5s122 -32.167 174 -55.5l-94 -233c-36.667 13.333 -68.667 23.833 -96 31.5s-51.666 13.5 -72.999 17.5
s-41.166 6.33301 -59.499 7s-37.833 1 -58.5 1c-45.333 0 -85 -7.83301 -119 -23.5s-62.5 -37.167 -85.5 -64.5s-40.333 -59.666 -52 -96.999s-17.5 -78.666 -17.5 -123.999c0 -98 26 -172.667 78 -224s118.667 -77 200 -77c20.667 0 41.334 1 62.001 3
s42.5 5.83301 65.5 11.5s48.833 13.5 77.5 23.5s61 22.667 97 38l88 -236c-106.667 -52 -227 -81.333 -361 -88l-12 -63c61.333 -8 110.166 -27.5 146.499 -58.5s54.5 -75.167 54.5 -132.5c0 -74 -24 -132.333 -72 -175s-119 -64 -213 -64c-20.667 0 -43.667 1.66699 -69 5
s-50.5 8 -75.5 14s-49.5 14.167 -73.5 24.5s-45 21.5 -63 33.5l78 160c4 -2.66699 12.167 -6.66699 24.5 -12s27 -10.833 44 -16.5s35.167 -10.5 54.5 -14.5s38.333 -6 57 -6c50.667 0 76 18.333 76 55c0 18 -6.83301 32.167 -20.5 42.5s-30.667 18.166 -51 23.499
s-42.833 8.66602 -67.5 9.99902s-47.334 2 -68.001 2l45 185c-70.667 13.333 -131.667 36 -183 68s-93.666 71.333 -126.999 118s-58.166 99.334 -74.499 158.001s-24.5 122 -24.5 190z" />
    <glyph glyph-name="egrave" unicode="&#xe8;" horiz-adv-x="1159" 
d="M74 518c0 72.667 11.5 142.67 34.5 210.003s57.833 127 104.5 179s103.334 93.333 170.001 124s144.334 46 233.001 46c83.333 0 155.166 -13 215.499 -39s110.166 -63.167 149.499 -111.5s68.666 -107 87.999 -176s29 -145.833 29 -230.5l-86 -82h-617
c2.66699 -65.333 28.334 -118.5 77.001 -159.5s116.667 -61.5 204 -61.5c52 0 105.333 6.16699 160 18.5s114.667 30.166 180 53.499l80 -230c-54.667 -23.333 -120 -44.833 -196 -64.5s-159.667 -29.5 -251 -29.5c-105.333 0 -194.5 13.667 -267.5 41
s-132.333 65.666 -178 114.999s-78.667 107.666 -99 174.999s-30.5 141.333 -30.5 222zM289 1532l238 162l270 -412l-176 -123zM399 635.003h382.999c-1.33301 69.333 -18.333 119.833 -51 151.5s-73 47.5 -121 47.5c-57.333 0 -105.666 -18.833 -144.999 -56.5
s-61.333 -85.167 -66 -142.5z" />
    <glyph glyph-name="eacute" unicode="&#xe9;" horiz-adv-x="1159" 
d="M74 518c0 72.667 11.5 142.67 34.5 210.003s57.833 127 104.5 179s103.334 93.333 170.001 124s144.334 46 233.001 46c83.333 0 155.166 -13 215.499 -39s110.166 -63.167 149.499 -111.5s68.666 -107 87.999 -176s29 -145.833 29 -230.5l-86 -82h-617
c2.66699 -65.333 28.334 -118.5 77.001 -159.5s116.667 -61.5 204 -61.5c52 0 105.333 6.16699 160 18.5s114.667 30.166 180 53.499l80 -230c-54.667 -23.333 -120 -44.833 -196 -64.5s-159.667 -29.5 -251 -29.5c-105.333 0 -194.5 13.667 -267.5 41
s-132.333 65.666 -178 114.999s-78.667 107.666 -99 174.999s-30.5 141.333 -30.5 222zM381 1282l268 412l231 -162l-325 -373zM399 635.003h382.999c-1.33301 69.333 -18.333 119.833 -51 151.5s-73 47.5 -121 47.5c-57.333 0 -105.666 -18.833 -144.999 -56.5
s-61.333 -85.167 -66 -142.5z" />
    <glyph glyph-name="ecircumflex" unicode="&#xea;" horiz-adv-x="1159" 
d="M74 518c0 72.667 11.5 142.67 34.5 210.003s57.833 127 104.5 179s103.334 93.333 170.001 124s144.334 46 233.001 46c83.333 0 155.166 -13 215.499 -39s110.166 -63.167 149.499 -111.5s68.666 -107 87.999 -176s29 -145.833 29 -230.5l-86 -82h-617
c2.66699 -65.333 28.334 -118.5 77.001 -159.5s116.667 -61.5 204 -61.5c52 0 105.333 6.16699 160 18.5s114.667 30.166 180 53.499l80 -230c-54.667 -23.333 -120 -44.833 -196 -64.5s-159.667 -29.5 -251 -29.5c-105.333 0 -194.5 13.667 -267.5 41
s-132.333 65.666 -178 114.999s-78.667 107.666 -99 174.999s-30.5 141.333 -30.5 222zM246 1276l264 344h193l252 -344l-162 -115l-189 225l-190 -223zM399 635.003h382.999c-1.33301 69.333 -18.333 119.833 -51 151.5s-73 47.5 -121 47.5
c-57.333 0 -105.666 -18.833 -144.999 -56.5s-61.333 -85.167 -66 -142.5z" />
    <glyph glyph-name="edieresis" unicode="&#xeb;" horiz-adv-x="1159" 
d="M74 518c0 72.667 11.5 142.67 34.5 210.003s57.833 127 104.5 179s103.334 93.333 170.001 124s144.334 46 233.001 46c83.333 0 155.166 -13 215.499 -39s110.166 -63.167 149.499 -111.5s68.666 -107 87.999 -176s29 -145.833 29 -230.5l-86 -82h-617
c2.66699 -65.333 28.334 -118.5 77.001 -159.5s116.667 -61.5 204 -61.5c52 0 105.333 6.16699 160 18.5s114.667 30.166 180 53.499l80 -230c-54.667 -23.333 -120 -44.833 -196 -64.5s-159.667 -29.5 -251 -29.5c-105.333 0 -194.5 13.667 -267.5 41
s-132.333 65.666 -178 114.999s-78.667 107.666 -99 174.999s-30.5 141.333 -30.5 222zM213 1376c0 46.667 14 86.334 42 119.001s69 49 123 49c52 0 92 -16.333 120 -49s42 -72.334 42 -119.001s-14 -86 -42 -118s-68 -48 -120 -48c-54 0 -95.333 15.667 -124 47
c-27.333 34 -41 73.667 -41 119zM399 635.003h382.999c-1.33301 69.333 -18.333 119.833 -51 151.5s-73 47.5 -121 47.5c-57.333 0 -105.666 -18.833 -144.999 -56.5s-61.333 -85.167 -66 -142.5zM670.999 1376c0 46.667 13 86.334 39 119.001s67.667 49 125 49
c53.333 0 93.666 -16.333 120.999 -49s41 -72.334 41 -119.001s-13.667 -86 -41 -118s-67.666 -48 -120.999 -48c-56 0 -97.667 15.667 -125 47c-26 31.333 -39 71 -39 119z" />
    <glyph glyph-name="igrave" unicode="&#xec;" horiz-adv-x="610" 
d="M-31 1532l238 162l270 -412l-176 -123zM45 799v243h440v-1042h-301v799h-139z" />
    <glyph glyph-name="iacute" unicode="&#xed;" horiz-adv-x="610" 
d="M45 799v243h440v-1042h-301v799h-139zM82 1282l268 412l231 -162l-325 -373z" />
    <glyph glyph-name="icircumflex" unicode="&#xee;" horiz-adv-x="610" 
d="M-72 1276l264 344h193l252 -344l-162 -115l-189 225l-190 -223zM45 799v243h440v-1042h-301v799h-139z" />
    <glyph glyph-name="idieresis" unicode="&#xef;" horiz-adv-x="610" 
d="M-98 1376c0 46.667 14 86.334 42 119.001s69 49 123 49c52 0 92 -16.333 120 -49s42 -72.334 42 -119.001s-14 -86 -42 -118s-68 -48 -120 -48c-54 0 -95.333 15.667 -124 47c-27.333 34 -41 73.667 -41 119zM45 799v243h440v-1042h-301v799h-139zM360 1376
c0 46.667 13 86.334 39 119.001s67.667 49 125 49c53.333 0 93.666 -16.333 120.999 -49s41 -72.334 41 -119.001s-13.667 -86 -41 -118s-67.666 -48 -120.999 -48c-56 0 -97.667 15.667 -125 47c-26 31.333 -39 71 -39 119z" />
    <glyph glyph-name="eth" unicode="&#xf0;" horiz-adv-x="1232" 
d="M76 481c0 82 11.5 155.166 34.5 219.499s55.333 119 97 164s91.834 79.5 150.501 103.5s123 36 193 36c52 0 101.167 -7.66699 147.5 -23s87.166 -35.666 122.499 -60.999c-20.667 56 -49 104.667 -85 146s-76.833 76.833 -122.5 106.5s-95.5 54 -149.5 73
s-109.667 33.833 -167 44.5l84 228c57.333 -9.33301 113.666 -23.333 168.999 -42s106 -41 152 -67l207 137l148 -192l-139 -97c70.667 -78 128.167 -169.5 172.5 -274.5s66.5 -232.5 66.5 -382.5c0 -90 -11.167 -174 -33.5 -252s-56.833 -145 -103.5 -201
s-104.5 -100 -173.5 -132s-149.167 -48 -240.5 -48c-86 0 -162 12.333 -228 37s-121.667 59.167 -167 103.5s-79.166 98.333 -101.499 162s-33.5 134.167 -33.5 211.5zM385 480.999c0 -86 19.502 -152.5 58.502 -199.5s98.167 -70.5 177.5 -70.5
c45.333 0 82.166 10.5 110.499 31.5s50.666 48.667 66.999 83s27.666 72 33.999 113s9.5 81.833 9.5 122.5c0 42.667 -2 81.667 -6 117c-23.333 19.333 -56.5 37.5 -99.5 54.5s-87.167 25.5 -132.5 25.5c-61.333 0 -113.166 -21.5 -155.499 -64.5
s-63.5 -113.833 -63.5 -212.5z" />
    <glyph glyph-name="ntilde" unicode="&#xf1;" horiz-adv-x="1226" 
d="M59 983l256 116.999l60 -107c48 23.333 97.167 43.166 147.5 59.499s110.166 24.5 179.499 24.5c76.667 0 141.334 -10.5 194.001 -31.5s95 -50.333 127 -88s54.833 -81.667 68.5 -132s20.5 -104.166 20.5 -161.499v-664h-301v641c0 66.667 -13 113.334 -39 140.001
s-66.333 40 -121 40c-42 0 -80.5 -5 -115.5 -15s-68.833 -22.667 -101.5 -38v-768h-301v788zM222 1229c0 94 12.834 167.002 38.501 219.002s69.5 82 131.5 90c5.33301 1.33301 13.333 2 24 2h25c32.667 -2.66699 66.334 -9.83398 101.001 -21.501s67.667 -24.167 99 -37.5
l52 -19c19.333 -6.66699 36.666 -12.334 51.999 -17.001s28.666 -7 39.999 -7c28.667 0 46 9.83301 52 29.5s9 44.5 9 74.5h183c0 -102.667 -16.5 -180.5 -49.5 -233.5s-80.833 -79.5 -143.5 -79.5c-35.333 0 -72.833 6.83301 -112.5 20.5l-110.5 38.5l-55 21l-56.5 18
c-17 5.33301 -31.167 8 -42.5 8c-27.333 0 -44 -9.5 -50 -28.5s-9 -44.833 -9 -77.5h-178z" />
    <glyph glyph-name="ograve" unicode="&#xf2;" horiz-adv-x="1232" 
d="M74 522c0 78 11.8291 150.832 35.4961 218.499s58.5 126.334 104.5 176.001s102.667 88.834 170 117.501s145.333 43 234 43c94 0 175.333 -14.333 244 -43s124.834 -67.834 168.501 -117.501s76 -108.334 97 -176.001s31.5 -140.5 31.5 -218.5
s-11.167 -150.667 -33.5 -218s-56.166 -126.333 -101.499 -177s-101.666 -90.334 -168.999 -119.001s-146.333 -43 -237 -43c-94 0 -174.667 14.333 -242 43s-123.666 68.334 -168.999 119.001s-78.833 109.834 -100.5 177.501s-32.5 140.167 -32.5 217.5zM341.996 1532
l238 162l270 -412l-176 -123zM382.996 521.999c-0.666992 -207.333 77.666 -311 234.999 -311c154 0 231.333 103.667 232 311c0 206 -77.333 309 -232 309c-157.333 0 -235.666 -103 -234.999 -309z" />
    <glyph glyph-name="oacute" unicode="&#xf3;" horiz-adv-x="1232" 
d="M74 522c0 78 11.8291 150.832 35.4961 218.499s58.5 126.334 104.5 176.001s102.667 88.834 170 117.501s145.333 43 234 43c94 0 175.333 -14.333 244 -43s124.834 -67.834 168.501 -117.501s76 -108.334 97 -176.001s31.5 -140.5 31.5 -218.5
s-11.167 -150.667 -33.5 -218s-56.166 -126.333 -101.499 -177s-101.666 -90.334 -168.999 -119.001s-146.333 -43 -237 -43c-94 0 -174.667 14.333 -242 43s-123.666 68.334 -168.999 119.001s-78.833 109.834 -100.5 177.501s-32.5 140.167 -32.5 217.5zM382.996 521.999
c-0.666992 -207.333 77.666 -311 234.999 -311c154 0 231.333 103.667 232 311c0 206 -77.333 309 -232 309c-157.333 0 -235.666 -103 -234.999 -309zM403.996 1282l268 412l231 -162l-325 -373z" />
    <glyph glyph-name="ocircumflex" unicode="&#xf4;" horiz-adv-x="1232" 
d="M74 522c0 78 11.8291 150.832 35.4961 218.499s58.5 126.334 104.5 176.001s102.667 88.834 170 117.501s145.333 43 234 43c94 0 175.333 -14.333 244 -43s124.834 -67.834 168.501 -117.501s76 -108.334 97 -176.001s31.5 -140.5 31.5 -218.5
s-11.167 -150.667 -33.5 -218s-56.166 -126.333 -101.499 -177s-101.666 -90.334 -168.999 -119.001s-146.333 -43 -237 -43c-94 0 -174.667 14.333 -242 43s-123.666 68.334 -168.999 119.001s-78.833 109.834 -100.5 177.501s-32.5 140.167 -32.5 217.5zM263.996 1276
l264 344h193l252 -344l-162 -115l-189 225l-190 -223zM382.996 521.999c-0.666992 -207.333 77.666 -311 234.999 -311c154 0 231.333 103.667 232 311c0 206 -77.333 309 -232 309c-157.333 0 -235.666 -103 -234.999 -309z" />
    <glyph glyph-name="otilde" unicode="&#xf5;" horiz-adv-x="1232" 
d="M74 522c0 78 11.8291 150.832 35.4961 218.499s58.5 126.334 104.5 176.001s102.667 88.834 170 117.501s145.333 43 234 43c94 0 175.333 -14.333 244 -43s124.834 -67.834 168.501 -117.501s76 -108.334 97 -176.001s31.5 -140.5 31.5 -218.5
s-11.167 -150.667 -33.5 -218s-56.166 -126.333 -101.499 -177s-101.666 -90.334 -168.999 -119.001s-146.333 -43 -237 -43c-94 0 -174.667 14.333 -242 43s-123.666 68.334 -168.999 119.001s-78.833 109.834 -100.5 177.501s-32.5 140.167 -32.5 217.5zM210.996 1229
c0 94 12.834 167.002 38.501 219.002s69.5 82 131.5 90c5.33301 1.33301 13.333 2 24 2h25c32.667 -2.66699 66.334 -9.83398 101.001 -21.501s67.667 -24.167 99 -37.5l52 -19c19.333 -6.66699 36.666 -12.334 51.999 -17.001s28.666 -7 39.999 -7
c28.667 0 46 9.83301 52 29.5s9 44.5 9 74.5h183c0 -102.667 -16.5 -180.5 -49.5 -233.5s-80.833 -79.5 -143.5 -79.5c-35.333 0 -72.833 6.83301 -112.5 20.5l-110.5 38.5l-55 21l-56.5 18c-17 5.33301 -31.167 8 -42.5 8c-27.333 0 -44 -9.5 -50 -28.5
s-9 -44.833 -9 -77.5h-178zM382.997 522.001c-0.666992 -207.333 77.666 -311 234.999 -311c154 0 231.333 103.667 232 311c0 206 -77.333 309 -232 309c-157.333 0 -235.666 -103 -234.999 -309z" />
    <glyph glyph-name="odieresis" unicode="&#xf6;" horiz-adv-x="1232" 
d="M74 522c0 78 11.8291 150.832 35.4961 218.499s58.5 126.334 104.5 176.001s102.667 88.834 170 117.501s145.333 43 234 43c94 0 175.333 -14.333 244 -43s124.834 -67.834 168.501 -117.501s76 -108.334 97 -176.001s31.5 -140.5 31.5 -218.5
s-11.167 -150.667 -33.5 -218s-56.166 -126.333 -101.499 -177s-101.666 -90.334 -168.999 -119.001s-146.333 -43 -237 -43c-94 0 -174.667 14.333 -242 43s-123.666 68.334 -168.999 119.001s-78.833 109.834 -100.5 177.501s-32.5 140.167 -32.5 217.5zM239.996 1376
c0 46.667 14 86.334 42 119.001s69 49 123 49c52 0 92 -16.333 120 -49s42 -72.334 42 -119.001s-14 -86 -42 -118s-68 -48 -120 -48c-54 0 -95.333 15.667 -124 47c-27.333 34 -41 73.667 -41 119zM382.996 521.999c-0.666992 -207.333 77.666 -311 234.999 -311
c154 0 231.333 103.667 232 311c0 206 -77.333 309 -232 309c-157.333 0 -235.666 -103 -234.999 -309zM697.996 1376c0 46.667 13 86.334 39 119.001s67.667 49 125 49c53.333 0 93.666 -16.333 120.999 -49s41 -72.334 41 -119.001s-13.667 -86 -41 -118
s-67.666 -48 -120.999 -48c-56 0 -97.667 15.667 -125 47c-26 31.333 -39 71 -39 119z" />
    <glyph glyph-name="divide" unicode="&#xf7;" horiz-adv-x="1372" 
d="M209 573v242h952v-242h-952zM528 315c0 46.667 12.999 85.667 38.999 117s66.333 47 121 47c52 0 91 -15.667 117 -47s39 -70.333 39 -117c0 -45.333 -13 -83.5 -39 -114.5s-65 -46.5 -117 -46.5c-53.333 0 -93.666 15.667 -120.999 47c-26 30 -39 68 -39 114z
M527.999 1081c0 46.667 12.999 85.667 38.999 117s66.333 47 121 47c52 0 91 -15.667 117 -47s39 -70.333 39 -117c0 -44 -13 -81.833 -39 -113.5s-65 -47.5 -117 -47.5c-53.333 0 -93.666 15.667 -120.999 47c-26 31.333 -39 69.333 -39 114z" />
    <glyph glyph-name="oslash" unicode="&#xf8;" horiz-adv-x="1232" 
d="M74 522c0 79.333 11.499 152.832 34.499 220.499s57.5 126.334 103.5 176.001s103.333 88.834 172 117.501s149 43 241 43c61.333 0 115 -6.66699 161 -20l88 160h248l-141 -256c61.333 -49.333 106.333 -111.5 135 -186.5s43 -157.833 43 -248.5
c0 -78 -10.5 -151.333 -31.5 -220s-53.667 -128.334 -98 -179.001s-101 -90.667 -170 -120s-151.5 -44 -247.5 -44c-62.667 0 -118.667 6.33301 -168 19l-108 -197h-248l160 293c-61.333 50.667 -105.666 113.5 -132.999 188.5s-41 159.5 -41 253.5zM382.999 521.999
c0 -61.333 7.66699 -114.667 23 -160l253 467c-6.66699 1.33301 -13.334 2.5 -20.001 3.5s-13.667 1.5 -21 1.5c-157.333 0 -235.666 -104 -234.999 -312zM568.999 212.998c10.667 -2.66699 18.333 -4 23 -4h26c75.333 0 132.833 26.667 172.5 80s59.5 131 59.5 233
c0 58.667 -7.66699 112 -23 160z" />
    <glyph glyph-name="ugrave" unicode="&#xf9;" horiz-adv-x="1220" 
d="M115 379l0.00195312 662.998h299v-645c0 -68 16 -114.667 48 -140s73.333 -38 124 -38c40.667 0 76.667 5.5 108 16.5s62.666 23.833 93.999 38.5v768h299v-804l95 -136l-217 -157l-107 108c-44 -23.333 -91.833 -43.833 -143.5 -61.5s-115.167 -26.5 -190.5 -26.5
s-138.833 10.667 -190.5 32s-93.834 50.333 -126.501 87s-56.167 80.334 -70.5 131.001s-21.5 105.334 -21.5 164.001zM281.002 1532l238 162l270 -412l-176 -123z" />
    <glyph glyph-name="uacute" unicode="&#xfa;" horiz-adv-x="1220" 
d="M115 379l0.00195312 662.998h299v-645c0 -68 16 -114.667 48 -140s73.333 -38 124 -38c40.667 0 76.667 5.5 108 16.5s62.666 23.833 93.999 38.5v768h299v-804l95 -136l-217 -157l-107 108c-44 -23.333 -91.833 -43.833 -143.5 -61.5s-115.167 -26.5 -190.5 -26.5
s-138.833 10.667 -190.5 32s-93.834 50.333 -126.501 87s-56.167 80.334 -70.5 131.001s-21.5 105.334 -21.5 164.001zM385.002 1282l268 412l231 -162l-325 -373z" />
    <glyph glyph-name="ucircumflex" unicode="&#xfb;" horiz-adv-x="1220" 
d="M115 379l0.00195312 662.998h299v-645c0 -68 16 -114.667 48 -140s73.333 -38 124 -38c40.667 0 76.667 5.5 108 16.5s62.666 23.833 93.999 38.5v768h299v-804l95 -136l-217 -157l-107 108c-44 -23.333 -91.833 -43.833 -143.5 -61.5s-115.167 -26.5 -190.5 -26.5
s-138.833 10.667 -190.5 32s-93.834 50.333 -126.501 87s-56.167 80.334 -70.5 131.001s-21.5 105.334 -21.5 164.001zM250.002 1276l264 344h193l252 -344l-162 -115l-189 225l-190 -223z" />
    <glyph glyph-name="udieresis" unicode="&#xfc;" horiz-adv-x="1220" 
d="M115 379l0.00195312 662.998h299v-645c0 -68 16 -114.667 48 -140s73.333 -38 124 -38c40.667 0 76.667 5.5 108 16.5s62.666 23.833 93.999 38.5v768h299v-804l95 -136l-217 -157l-107 108c-44 -23.333 -91.833 -43.833 -143.5 -61.5s-115.167 -26.5 -190.5 -26.5
s-138.833 10.667 -190.5 32s-93.834 50.333 -126.501 87s-56.167 80.334 -70.5 131.001s-21.5 105.334 -21.5 164.001zM209.002 1376c0 46.667 14 86.334 42 119.001s69 49 123 49c52 0 92 -16.333 120 -49s42 -72.334 42 -119.001s-14 -86 -42 -118s-68 -48 -120 -48
c-54 0 -95.333 15.667 -124 47c-27.333 34 -41 73.667 -41 119zM667.002 1376c0 46.667 13 86.334 39 119.001s67.667 49 125 49c53.333 0 93.666 -16.333 120.999 -49s41 -72.334 41 -119.001s-13.667 -86 -41 -118s-67.666 -48 -120.999 -48c-56 0 -97.667 15.667 -125 47
c-26 31.333 -39 71 -39 119z" />
    <glyph glyph-name="yacute" unicode="&#xfd;" horiz-adv-x="1202" 
d="M31 1006l292.998 64.999l174 -690c15.333 -57.333 31.333 -97.666 48 -120.999s43.667 -35 81 -35h32l220 846l292 -67l-303 -1178c-27.333 -102.667 -76.166 -176.167 -146.499 -220.5s-158.5 -66.5 -264.5 -66.5c-48 0 -101 4.83301 -159 14.5s-111 21.834 -159 36.501
l47 242c38 -10.667 77.333 -20.834 118 -30.501s82 -14.5 124 -14.5c34 0 64 7.16699 90 21.5s44.333 43.5 55 87.5l21 73c-113.333 0 -198.666 24 -255.999 72s-98.333 123 -123 225zM429.998 1282l268 412l231 -162l-325 -373z" />
    <glyph glyph-name="thorn" unicode="&#xfe;" horiz-adv-x="1206" 
d="M125 -446v1923h295v-465c35.333 18 75.833 33.667 121.5 47s97.167 20 154.5 20c65.333 0 125 -11.833 179 -35.5s99.833 -58.834 137.5 -105.501s67.167 -104 88.5 -172s32 -147.333 32 -238c0 -80.667 -10.333 -155.334 -31 -224.001s-52.5 -128.334 -95.5 -179.001
s-98 -90 -165 -118s-147.5 -42 -241.5 -42c-26 0 -54.667 2 -86 6s-62 9.66699 -92 17v-434h-297zM422 240.003c23.333 -8 47.999 -14.5 73.999 -19.5s56 -7.5 90 -7.5c32.667 0 63.334 5.5 92.001 16.5s53.5 28.667 74.5 53s37.667 56.333 50 96s18.5 88.167 18.5 145.5
c0 108 -18.667 184.5 -56 229.5s-89 67.5 -155 67.5c-30 0 -60 -4.33301 -90 -13s-62.667 -20.667 -98 -36v-532z" />
    <glyph glyph-name="ydieresis" unicode="&#xff;" horiz-adv-x="1202" 
d="M31 1006l292.998 64.999l174 -690c15.333 -57.333 31.333 -97.666 48 -120.999s43.667 -35 81 -35h32l220 846l292 -67l-303 -1178c-27.333 -102.667 -76.166 -176.167 -146.499 -220.5s-158.5 -66.5 -264.5 -66.5c-48 0 -101 4.83301 -159 14.5s-111 21.834 -159 36.501
l47 242c38 -10.667 77.333 -20.834 118 -30.501s82 -14.5 124 -14.5c34 0 64 7.16699 90 21.5s44.333 43.5 55 87.5l21 73c-113.333 0 -198.666 24 -255.999 72s-98.333 123 -123 225zM229.998 1376c0 46.667 14 86.334 42 119.001s69 49 123 49c52 0 92 -16.333 120 -49
s42 -72.334 42 -119.001s-14 -86 -42 -118s-68 -48 -120 -48c-54 0 -95.333 15.667 -124 47c-27.333 34 -41 73.667 -41 119zM687.998 1376c0 46.667 13 86.334 39 119.001s67.667 49 125 49c53.333 0 93.666 -16.333 120.999 -49s41 -72.334 41 -119.001
s-13.667 -86 -41 -118s-67.666 -48 -120.999 -48c-56 0 -97.667 15.667 -125 47c-26 31.333 -39 71 -39 119z" />
    <glyph glyph-name="OE" unicode="&#x152;" horiz-adv-x="2287" 
d="M80 727c0 98 12.666 193.499 37.999 286.499s66 176 122 249s128.333 131.333 217 175s196.334 65.5 323.001 65.5c78 0 146.333 -9.5 205 -28.5s110 -42.833 154 -71.5v74h1061v-260h-758v-316h586v-262h-586v-379h774v-260h-1077v78
c-40.667 -31.333 -92.167 -58 -154.5 -80s-134.5 -33 -216.5 -33c-121.333 0 -225.333 20.833 -312 62.5s-158 97.334 -214 167.001s-97 150.5 -123 242.5s-39 188.667 -39 290zM402.999 728.999c0 -69.333 8 -134.502 24 -195.502s40 -113.667 72 -158
s72.5 -79.5 121.5 -105.5s107.167 -39 174.5 -39c78 0 145.5 13.333 202.5 40s104.167 61.334 141.5 104.001v729c-44 42 -94.333 74.667 -151 98s-119.667 35 -189 35c-68 0 -127 -13.333 -177 -40s-91 -63.167 -123 -109.5s-56 -100.166 -72 -161.499s-24 -127 -24 -197z
" />
    <glyph glyph-name="oe" unicode="&#x153;" horiz-adv-x="1910" 
d="M74 520c0 78 10.8359 151.166 32.5029 219.499s54.667 127.333 99 177s100 88.834 167 117.501s145.5 43 235.5 43c94 0 171.833 -16.333 233.5 -49s111.5 -77.667 149.5 -135c39.333 52 89.5 95.667 150.5 131s138.5 53 232.5 53c79.333 0 148 -13 206 -39
s106.167 -63.167 144.5 -111.5s66.666 -107 84.999 -176s27.5 -145.833 27.5 -230.5l-88 -82h-598c2.66699 -62.667 25.167 -115.167 67.5 -157.5s102.5 -63.5 180.5 -63.5c26 0 51.167 1 75.5 3s50.166 5.5 77.499 10.5s57.166 11.833 89.499 20.5s69.5 20 111.5 34
l78 -232c-57.333 -23.333 -125 -43.833 -203 -61.5s-162.667 -26.5 -254 -26.5c-98 0 -178.167 15.333 -240.5 46s-111.833 72 -148.5 124c-35.333 -50.667 -85.5 -91.667 -150.5 -123s-146.5 -47 -244.5 -47c-92.667 0 -171.5 14.333 -236.5 43s-118.333 68 -160 118
s-72 108.667 -91 176s-28.5 140 -28.5 218zM383.003 519.999c0 -102.667 19.666 -180.5 58.999 -233.5s98 -79.5 176 -79.5c75.333 0 132.833 26.667 172.5 80s59.5 131 59.5 233c0 206 -77.333 309 -232 309c-157.333 0 -235.666 -103 -234.999 -309zM1155 634.999h366.999
c-1.33301 69.333 -18.5 119.833 -51.5 151.5s-73.167 47.5 -120.5 47.5c-57.333 0 -103.166 -18.833 -137.499 -56.5s-53.5 -85.167 -57.5 -142.5z" />
    <glyph glyph-name="Ydieresis" unicode="&#x178;" horiz-adv-x="1368" 
d="M12 1384l275 115l309 -665c15.333 -31.333 29.5 -51.833 42.5 -61.5s28.167 -14.5 45.5 -14.5c20.667 0 37.167 5 49.5 15s25.833 31 40.5 63l312 663l274 -110l-281 -605c-34 -74 -68.667 -134.5 -104 -181.5s-82.333 -81.167 -141 -102.5v-500h-310v498
c-56 19.333 -100.667 51 -134 95s-66.333 102.333 -99 175zM299 1755c0 46.667 14 86.335 42 119.002s69 49 123 49c52 0 92.333 -16.333 121 -49s43 -72.334 43 -119.001s-14.333 -86.334 -43 -119.001s-69 -49 -121 -49c-54 0 -95.333 16.333 -124 49
c-27.333 34 -41 73.667 -41 119zM759 1755c0 46.667 13.332 86.335 39.999 119.002s67.334 49 122.001 49c53.333 0 93.666 -16.333 120.999 -49s41 -72.334 41 -119.001s-13.667 -86.334 -41 -119.001s-67.666 -49 -120.999 -49c-56 0 -97 16.333 -123 49
c-26 31.333 -39 71 -39 119z" />
    <glyph glyph-name="circumflex" unicode="&#x2c6;" 
d="M129 1276l264 344h193l252 -344l-162 -115l-189 225l-190 -223z" />
    <glyph glyph-name="tilde" unicode="&#x2dc;" 
d="M113 1229c0 94 12.834 167.002 38.501 219.002s69.5 82 131.5 90c5.33301 1.33301 13.333 2 24 2h25c32.667 -2.66699 66.334 -9.83398 101.001 -21.501s67.667 -24.167 99 -37.5l52 -19c19.333 -6.66699 36.666 -12.334 51.999 -17.001s28.666 -7 39.999 -7
c28.667 0 46 9.83301 52 29.5s9 44.5 9 74.5h183c0 -102.667 -16.5 -180.5 -49.5 -233.5s-80.833 -79.5 -143.5 -79.5c-35.333 0 -72.833 6.83301 -112.5 20.5l-110.5 38.5l-55 21l-56.5 18c-17 5.33301 -31.167 8 -42.5 8c-27.333 0 -44 -9.5 -50 -28.5
s-9 -44.833 -9 -77.5h-178z" />
    <glyph glyph-name="uni2000" unicode="&#x2000;" horiz-adv-x="1070" 
 />
    <glyph glyph-name="uni2001" unicode="&#x2001;" horiz-adv-x="2140" 
 />
    <glyph glyph-name="uni2002" unicode="&#x2002;" horiz-adv-x="1070" 
 />
    <glyph glyph-name="uni2003" unicode="&#x2003;" horiz-adv-x="2140" 
 />
    <glyph glyph-name="uni2004" unicode="&#x2004;" horiz-adv-x="713" 
 />
    <glyph glyph-name="uni2005" unicode="&#x2005;" horiz-adv-x="535" 
 />
    <glyph glyph-name="uni2006" unicode="&#x2006;" horiz-adv-x="356" 
 />
    <glyph glyph-name="uni2007" unicode="&#x2007;" horiz-adv-x="356" 
 />
    <glyph glyph-name="uni2008" unicode="&#x2008;" horiz-adv-x="267" 
 />
    <glyph glyph-name="uni2009" unicode="&#x2009;" horiz-adv-x="428" 
 />
    <glyph glyph-name="uni200A" unicode="&#x200a;" horiz-adv-x="118" 
 />
    <glyph glyph-name="uni2010" unicode="&#x2010;" horiz-adv-x="962" 
d="M145 502v260h676v-260h-676z" />
    <glyph glyph-name="uni2011" unicode="&#x2011;" horiz-adv-x="962" 
d="M145 502v260h676v-260h-676z" />
    <glyph glyph-name="figuredash" unicode="&#x2012;" horiz-adv-x="962" 
d="M145 502v260h676v-260h-676z" />
    <glyph glyph-name="endash" unicode="&#x2013;" 
d="M0 492v239h1024v-239h-1024z" />
    <glyph glyph-name="emdash" unicode="&#x2014;" horiz-adv-x="2048" 
d="M0 492v239h2048v-239h-2048z" />
    <glyph glyph-name="quoteleft" unicode="&#x2018;" horiz-adv-x="522" 
d="M88 1047c0 13.333 1.33008 28.1621 3.99707 44.4951s7.83398 36.833 15.501 61.5s18.334 55.334 32.001 92.001s32.167 82.334 55.5 137.001l49 113l182 -57l-80 -240c26 -10.667 49.167 -27.667 69.5 -51s30.5 -54.666 30.5 -93.999
c0 -49.333 -14.333 -89.666 -43 -120.999s-73.667 -47 -135 -47s-106.666 16.333 -135.999 49s-44 70.334 -44 113.001z" />
    <glyph glyph-name="quoteright" unicode="&#x2019;" horiz-adv-x="522" 
d="M78 1333c0 49.333 14.334 89.668 43.001 121.001s73.667 47 135 47s106.666 -16.333 135.999 -49s44 -70.334 44 -113.001c0 -13.333 -1.33301 -28.166 -4 -44.499s-7.66699 -36.833 -15 -61.5s-17.833 -55.5 -31.5 -92.5s-32.167 -82.5 -55.5 -136.5l-49 -113l-183 57
l80 240c-26 10.667 -49.167 27.667 -69.5 51s-30.5 54.666 -30.5 93.999z" />
    <glyph glyph-name="quotesinglbase" unicode="&#x201a;" horiz-adv-x="522" 
d="M78 150c0 49.333 14.334 89.5029 43.001 120.503s73.667 46.5 135 46.5s106.666 -16.333 135.999 -49s44 -70 44 -112c0 -13.333 -1.33301 -28.333 -4 -45s-7.66699 -37.334 -15 -62.001s-17.833 -55.334 -31.5 -92.001s-32.167 -82.334 -55.5 -137.001l-49 -113l-183 57
l80 240c-26 10.667 -49.167 27.667 -69.5 51s-30.5 55 -30.5 95z" />
    <glyph glyph-name="quotedblleft" unicode="&#x201c;" horiz-adv-x="946" 
d="M88 1047c0 13.333 1.33008 28.1621 3.99707 44.4951s7.83398 36.833 15.501 61.5s18.334 55.334 32.001 92.001s32.167 82.334 55.5 137.001l49 113l182 -57l-80 -240c26 -10.667 49.167 -27.667 69.5 -51s30.5 -54.666 30.5 -93.999
c0 -49.333 -14.333 -89.666 -43 -120.999s-73.667 -47 -135 -47s-106.666 16.333 -135.999 49s-44 70.334 -44 113.001zM511.997 1047c0 13.333 1.33008 28.1621 3.99707 44.4951s7.83398 36.833 15.501 61.5s18.334 55.334 32.001 92.001s32.167 82.334 55.5 137.001
l49 113l182 -57l-80 -240c26 -10.667 49.167 -27.667 69.5 -51s30.5 -54.666 30.5 -93.999c0 -49.333 -14.333 -89.666 -43 -120.999s-73.667 -47 -135 -47s-106.666 16.333 -135.999 49s-44 70.334 -44 113.001z" />
    <glyph glyph-name="quotedblright" unicode="&#x201d;" horiz-adv-x="946" 
d="M78 1333c0 49.333 14.334 89.668 43.001 121.001s73.667 47 135 47s106.666 -16.333 135.999 -49s44 -70.334 44 -113.001c0 -13.333 -1.33301 -28.166 -4 -44.499s-7.66699 -36.833 -15 -61.5s-17.833 -55.5 -31.5 -92.5s-32.167 -82.5 -55.5 -136.5l-49 -113l-183 57
l80 240c-26 10.667 -49.167 27.667 -69.5 51s-30.5 54.666 -30.5 93.999zM502.001 1333c0 49.333 14.334 89.668 43.001 121.001s73.667 47 135 47s106.666 -16.333 135.999 -49s44 -70.334 44 -113.001c0 -13.333 -1.33301 -28.166 -4 -44.499s-7.66699 -36.833 -15 -61.5
s-17.833 -55.5 -31.5 -92.5s-32.167 -82.5 -55.5 -136.5l-49 -113l-183 57l80 240c-26 10.667 -49.167 27.667 -69.5 51s-30.5 54.666 -30.5 93.999z" />
    <glyph glyph-name="quotedblbase" unicode="&#x201e;" horiz-adv-x="946" 
d="M78 150c0 49.333 14.334 89.5029 43.001 120.503s73.667 46.5 135 46.5s106.666 -16.333 135.999 -49s44 -70 44 -112c0 -13.333 -1.33301 -28.333 -4 -45s-7.66699 -37.334 -15 -62.001s-17.833 -55.334 -31.5 -92.001s-32.167 -82.334 -55.5 -137.001l-49 -113l-183 57
l80 240c-26 10.667 -49.167 27.667 -69.5 51s-30.5 55 -30.5 95zM502.001 150.003c0 49.333 14.334 89.5029 43.001 120.503s73.667 46.5 135 46.5s106.666 -16.333 135.999 -49s44 -70 44 -112c0 -13.333 -1.33301 -28.333 -4 -45s-7.66699 -37.334 -15 -62.001
s-17.833 -55.334 -31.5 -92.001s-32.167 -82.334 -55.5 -137.001l-49 -113l-183 57l80 240c-26 10.667 -49.167 27.667 -69.5 51s-30.5 55 -30.5 95z" />
    <glyph glyph-name="bullet" unicode="&#x2022;" 
d="M254 678c0 78 20.5 142.167 61.5 192.5s107.167 75.5 198.5 75.5c87.333 0 151.833 -25.167 193.5 -75.5s62.5 -114.5 62.5 -192.5s-20.833 -142.167 -62.5 -192.5s-106.167 -75.5 -193.5 -75.5c-92 -0.666992 -158.333 24.333 -199 75s-61 115 -61 193z" />
    <glyph glyph-name="ellipsis" unicode="&#x2026;" horiz-adv-x="1724" 
d="M92 143c0 50.667 13.667 92.334 41 125.001s70.333 49 129 49s101.667 -16.333 129 -49s41 -74.334 41 -125.001c0 -52 -13.667 -94.333 -41 -127s-70.333 -49 -129 -49c-60 0 -103 16.333 -129 49c-27.333 34 -41 76.333 -41 127zM692 143
c0 50.667 13.667 92.334 41 125.001s70.333 49 129 49s101.667 -16.333 129 -49s41 -74.334 41 -125.001c0 -52 -13.667 -94.333 -41 -127s-70.333 -49 -129 -49c-60 0 -103 16.333 -129 49c-27.333 34 -41 76.333 -41 127zM1292 143c0 50.667 13.667 92.334 41 125.001
s70.333 49 129 49s101.667 -16.333 129 -49s41 -74.334 41 -125.001c0 -52 -13.667 -94.333 -41 -127s-70.333 -49 -129 -49c-60 0 -103 16.333 -129 49c-27.333 34 -41 76.333 -41 127z" />
    <glyph glyph-name="uni202F" unicode="&#x202f;" horiz-adv-x="428" 
 />
    <glyph glyph-name="guilsinglleft" unicode="&#x2039;" horiz-adv-x="837" 
d="M115 551c0 52 15.6689 95.334 47.002 130.001s71.666 70.334 120.999 107.001l309 230l141 -199l-303 -217c-16.667 -10.667 -24.667 -22.334 -24 -35.001c0 -12 6 -22 18 -30l317 -230l-141 -201l-332 226c-50.667 34 -88.834 66.667 -114.501 98
s-38.5 71.666 -38.5 120.999z" />
    <glyph glyph-name="guilsinglright" unicode="&#x203a;" horiz-adv-x="837" 
d="M96 817l141.999 201.001l331 -225c50.667 -34 89 -66.833 115 -98.5s39 -72.167 39 -121.5c0 -52 -15.667 -95.333 -47 -130s-71.666 -70.334 -120.999 -107.001l-309 -230l-142 199l306 223c16.667 9.33301 24.667 21 24 35c0 12 -6 22.333 -18 31z" />
    <glyph glyph-name="uni205F" unicode="&#x205f;" horiz-adv-x="535" 
 />
    <glyph glyph-name="Euro" unicode="&#x20ac;" horiz-adv-x="1427" 
d="M96 424l0.00195312 229.002h942v-229h-458c23.333 -66.667 59.166 -117.167 107.499 -151.5s115.5 -51.5 201.5 -51.5c30 0 58.667 1.66699 86 5s56 9.16602 86 17.499s62 18.666 96 30.999l117 44.5l88 -235c-75.333 -36.667 -150.833 -65.667 -226.5 -87
s-162.834 -32 -261.501 -32c-94 0 -176.833 12 -248.5 36s-133 56.5 -184 97.5s-92 89.5 -123 145.5s-52.5 116 -64.5 180h-158zM96.002 752.002l0.000976562 231h156c18 74 44.667 141.333 80 202s79.333 112.5 132 155.5s114.167 76.5 184.5 100.5s149.166 36 236.499 36
c94 0 179.5 -11 256.5 -33s147.167 -47.333 210.5 -76l-90 -233c-40.667 18 -77.5 32.333 -110.5 43s-63.833 19 -92.5 25s-56.667 10.167 -84 12.5s-55.333 3.5 -84 3.5c-94 0 -166.333 -19.833 -217 -59.5s-85.667 -98.5 -105 -176.5h469v-231h-942z" />
    <glyph glyph-name="trademark" unicode="&#x2122;" horiz-adv-x="1867" 
d="M78 1247v230h696v-230h-221v-596h-256v596h-219zM874 651v825.998h207l189 -351c10.667 -19.333 21.667 -28.666 33 -27.999c10.667 0 21.334 9.33301 32.001 28l185 351h209v-826h-234v385l-70 -108c-16.667 -27.333 -34 -47.166 -52 -59.499s-40.667 -18.5 -68 -18.5
s-50.333 6.5 -69 19.5s-37.334 33.167 -56.001 60.5l-72 106v-385h-234z" />
    <glyph glyph-name="uni25FC" unicode="&#x25fc;" horiz-adv-x="1085" 
d="M0 0v1085h1085v-1085h-1085z" />
  </font>
</defs>
</svg>
